<?xml version="1.0" encoding="iso-8859-1"?>
<!-- Generator: Adobe Illustrator 19.0.0, SVG Export Plug-In . SVG Version: 6.00 Build 0)  -->
<svg version="1.1" id="Capa_1" xmlns="http://www.w3.org/2000/svg" xmlns:xlink="http://www.w3.org/1999/xlink" x="0px" y="0px"
	 viewBox="0 0 511.999 511.999" style="enable-background:new 0 0 511.999 511.999;" xml:space="preserve">
<path style="fill:#FEE4BB;" d="M502,382.079L502,382.079c0-66.758-22.717-131.528-64.415-183.661l-63.078-78.863h-128.76
	l-63.078,78.863c-41.698,52.133-64.415,116.903-64.415,183.66l0,0c0,66.204,53.669,119.873,119.873,119.873h144
	C448.331,501.953,502,448.283,502,382.079z"/>
<path style="fill:#FED79A;" d="M374.317,119.556L406.96,55.48c9.754-19.146-11.428-39.223-30.025-28.458l0,0
	c-7.749,4.486-17.464,3.717-24.411-1.931l0,0c-24.727-20.161-60.214-20.187-84.97-0.062l-0.076,0.062
	c-6.948,5.648-16.662,6.416-24.411,1.931l0,0c-18.596-10.764-39.778,9.312-30.025,28.458l32.643,64.076H374.317z"/>
<path style="fill:#C1EE92;" d="M120.434,176.286l110.434,50.799c0,0,0,53.253,0,83.09c-1.109,48.396-5.067,89.146-110.434,137.777
	C15.067,399.322,11.109,358.572,10,310.176c0-29.837,0-83.09,0-83.09L120.434,176.286z"/>
<path d="M341.069,199.022c1.86-1.859,2.931-4.439,2.931-7.069s-1.07-5.21-2.931-7.07c-1.859-1.86-4.439-2.93-7.069-2.93
	s-5.21,1.069-7.07,2.93s-2.93,4.44-2.93,7.07s1.069,5.21,2.93,7.069c1.86,1.86,4.44,2.931,7.07,2.931
	S339.21,200.882,341.069,199.022z"/>
<path d="M310.161,396.515c-14.332,0-25.992-10.167-25.992-22.664c0-5.522-4.478-10-10-10s-10,4.478-10,10
	c0,20.339,15.426,37.388,35.992,41.636v2.535c0,5.522,4.478,10,10,10s10-4.478,10-10v-2.536
	c20.565-4.248,35.991-21.297,35.991-41.636c0-23.525-20.632-42.665-45.991-42.665c-14.332,0-25.992-10.167-25.992-22.664
	s11.66-22.665,25.992-22.665s25.991,10.168,25.991,22.665c0,5.522,4.478,10,10,10s10-4.478,10-10
	c0-20.339-15.426-37.389-35.991-41.637v-1.003c0-5.522-4.478-10-10-10s-10,4.478-10,10v1.003
	c-20.566,4.248-35.992,21.298-35.992,41.637c0,23.525,20.632,42.664,45.992,42.664c14.332,0,25.991,10.168,25.991,22.665
	S324.493,396.515,310.161,396.515z"/>
<path d="M445.395,192.172l-59.166-73.971l29.64-58.183c6.504-12.767,3.987-27.386-6.411-37.242
	c-10.399-9.857-25.132-11.587-37.534-4.41c-4.13,2.392-9.392,1.975-13.081-1.025c-28.26-23.041-69.307-23.072-97.674-0.01
	c-3.703,3.011-8.964,3.427-13.094,1.034c-12.401-7.177-27.134-5.447-37.533,4.411c-10.398,9.856-12.915,24.476-6.411,37.242
	l29.739,58.376l-34.461,43.084c-3.449,4.313-2.75,10.605,1.563,14.056c4.314,3.45,10.605,2.749,14.056-1.563l35.526-44.416H324
	v28.063c0,5.522,4.478,10,10,10s10-4.478,10-10v-28.063h15.25v99.896c0,5.522,4.478,10,10,10s10-4.478,10-10v-87.957l50.525,63.169
	C469.901,254.831,492,317.839,492,382.079c0,60.584-49.289,109.873-109.873,109.873h-144c-36.208,0-69.23-17.275-89.827-46.583
	c36.74-19.392,60.817-39.071,74.867-60.998c15.347-23.952,17.095-47.669,17.697-73.966c0.002-0.077,0.003-0.153,0.003-0.229v-83.091
	c0-3.905-2.273-7.453-5.821-9.085l-110.434-50.8c-2.652-1.221-5.705-1.221-8.357,0L5.821,218C2.273,219.632,0,223.18,0,227.085
	v83.091c0,0.076,0.001,0.152,0.003,0.229c0.603,26.297,2.351,50.014,17.697,73.966c16.871,26.33,48.184,49.419,98.543,72.661
	c1.329,0.613,2.76,0.92,4.19,0.92s2.861-0.307,4.19-0.92c1.907-0.88,3.777-1.76,5.629-2.64
	c11.066,16.47,25.829,30.308,43.034,40.239c19.63,11.331,42.052,17.32,64.84,17.32h144c71.612,0,129.873-58.261,129.873-129.873
	C512,313.316,488.346,245.871,445.395,192.172z M224.301,37.292c1.472-1.396,6.819-5.631,13.754-1.617
	c11.27,6.523,25.627,5.389,35.806-2.887c20.974-17.048,51.397-17.026,72.355,0.063c10.104,8.212,24.461,9.348,35.729,2.825
	c6.939-4.02,12.283,0.22,13.755,1.616c1.472,1.395,5.99,6.501,2.35,13.648l-29.86,58.615H251.812l-29.86-58.615
	C218.311,43.793,222.829,38.687,224.301,37.292z M120.434,436.917C21.931,390.446,20.987,353.144,20,310.063v-76.57l100.434-46.2
	l100.434,46.2v76.57C219.88,353.144,218.937,390.446,120.434,436.917z"/>
<path d="M170.142,278.815l-56.039,56.039L90.38,311.131c-3.906-3.904-10.236-3.904-14.143,0c-3.905,3.905-3.905,10.237,0,14.143
	l30.794,30.794c1.953,1.952,4.512,2.929,7.071,2.929s5.118-0.977,7.071-2.929l63.11-63.11c3.905-3.905,3.905-10.237,0-14.143
	C180.378,274.911,174.048,274.911,170.142,278.815z"/>
<g>
</g>
<g>
</g>
<g>
</g>
<g>
</g>
<g>
</g>
<g>
</g>
<g>
</g>
<g>
</g>
<g>
</g>
<g>
</g>
<g>
</g>
<g>
</g>
<g>
</g>
<g>
</g>
<g>
</g>
</svg>
