<svg xmlns="http://www.w3.org/2000/svg" xmlns:xlink="http://www.w3.org/1999/xlink" width="81" height="100" viewBox="0 0 81 100">
    <defs>
        <path id="a" d="M.013.084h80.286v19.86H.013z"/>
    </defs>
    <g fill="none" fill-rule="evenodd">
        <g transform="translate(0 79.825)">
            <mask id="b" fill="#fff">
                <use xlink:href="#a"/>
            </mask>
            <path fill="#E6E6E6" d="M40.15 20.556C17.976 20.556 0 16.108 0 10.62 0 5.133 17.976.684 40.15.684S80.3 5.133 80.3 10.62c0 5.488-17.976 9.936-40.15 9.936" mask="url(#b)"/>
        </g>
        <path fill="#DFDCDC" d="M68.509 81.59c0 4.62-3.79 8.402-8.422 8.402h-39.58c-4.632 0-8.422-3.781-8.422-8.403V11.007c0-4.621 3.79-8.402 8.421-8.402h39.581c4.632 0 8.422 3.781 8.422 8.402V81.59"/>
        <path fill="#A2A1A1" d="M20.506 5.126c-3.242 0-5.895 2.646-5.895 5.881V81.59c0 3.235 2.653 5.882 5.895 5.882h39.581c3.243 0 5.896-2.647 5.896-5.882V11.007c0-3.235-2.653-5.881-5.896-5.881h-39.58zm39.581 87.387h-39.58c-6.043 0-10.949-4.895-10.949-10.924V11.007C9.558 4.98 14.464.084 20.506.084h39.581c6.043 0 10.948 4.895 10.948 10.923V81.59c0 6.029-4.905 10.924-10.948 10.924z"/>
        <path fill="#A2A1A1" d="M39.876 77.388a3.365 3.365 0 0 1 3.368 3.36 3.365 3.365 0 0 1-3.368 3.362 3.365 3.365 0 0 1-3.369-3.361 3.365 3.365 0 0 1 3.369-3.361"/>
        <path fill="#FFFFFE" d="M21.349 72.346h37.896V11.848H21.35z"/>
        <path fill="#FFFFFE" d="M28.086 23.611V49.66h6.737l5.895 5.882 5.895-5.882h5.895V23.611H28.086"/>
        <path fill="#33BDD3" d="M29.77 47.979h5.053c.442 0 .884.168 1.2.483l4.695 4.684 4.695-4.684a1.671 1.671 0 0 1 1.2-.483h4.21V25.292H29.77v22.687zm10.948 9.243c-.421 0-.863-.168-1.2-.484l-5.39-5.398h-6.042a1.687 1.687 0 0 1-1.685-1.68V23.61c0-.924.758-1.68 1.685-1.68h24.422c.927 0 1.684.756 1.684 1.68V49.66c0 .925-.757 1.68-1.684 1.68h-5.2l-5.411 5.4a1.694 1.694 0 0 1-1.179.483z"/>
        <path fill="#33BDD3" d="M40.55 45.731c-3.137 0-5.032-1.806-5.243-1.996l2.38-2.373c.02.02 1.094 1.03 2.842 1.03 1.747 0 2.694-.946 2.694-1.345 0-.799-1.347-1.303-3.263-1.933-2.168-.714-5.158-1.701-5.158-4.621 0-2.815 2.105-4.706 5.221-4.706 2.464 0 4.274 1.156 4.464 1.282.779.504.99 1.554.463 2.331a1.673 1.673 0 0 1-2.316.483c-.042-.02-1.18-.735-2.61-.735-1.853 0-1.853.967-1.853 1.345 0 .483 1.79 1.071 2.842 1.428 2.358.777 5.579 1.828 5.579 5.126.021 2.583-2.695 4.684-6.042 4.684"/>
        <path fill="#33BDD3" d="M40.718 47.979a.844.844 0 0 1-.842-.84V27.813c0-.463.379-.84.842-.84.463 0 .842.377.842.84v19.326c0 .462-.379.84-.842.84"/>
        <path fill="#A2A1A1" d="M21.77 72.286h-.843V11.848c0-.231.19-.42.422-.42h37.833v.84H21.77v58.818"/>
    </g>
</svg>
