<svg xmlns="http://www.w3.org/2000/svg" width="28" height="29" viewBox="0 0 28 29">
    <g fill="#FFF" fill-rule="evenodd">
        <path d="M16.868 8.35v2.203c-.432 0-.843.006-1.253-.002-.373-.007-.562.157-.555.544.006.389.001.777.001 1.23h1.829l-.171 2.086h-1.663v6.074h-2.465v-6.042h-1.2v-2.108h1.193c0-.378-.007-.72.002-1.062.007-.304.021-.608.053-.91.106-1.018.64-1.692 1.637-1.85.838-.134 1.701-.114 2.592-.163"/>
        <path stroke="#FFF" d="M14.114 26.397c-6.545 0-11.852-5.372-11.852-12s5.307-12 11.852-12c6.546 0 11.853 5.372 11.853 12s-5.307 12-11.853 12m-.34-25.288C6.785 1.286.99 7.144 1 14.416c.01 7.405 5.982 13.004 12.6 13.264 7.52.295 13.736-5.97 13.626-13.246.144-7.1-5.76-13.52-13.451-13.325"/>
    </g>
</svg>
