<svg xmlns="http://www.w3.org/2000/svg" width="28" height="28" viewBox="0 0 28 28">
    <g fill="#FFF" fill-rule="evenodd">
        <path d="M3.385 13.535c0 1.812-.008 3.625.005 5.436.003.447.028.904.124 1.339.58 2.625 2.745 4.363 5.448 4.37 3.665.011 7.33.007 10.996-.002a5.704 5.704 0 0 0 1.22-.123c2.616-.584 4.35-2.754 4.358-5.465.01-3.675.006-7.35-.003-11.026a5.75 5.75 0 0 0-.123-1.222c-.582-2.625-2.746-4.363-5.449-4.371-3.665-.01-7.33-.006-10.996.003a5.704 5.704 0 0 0-1.219.123c-2.603.58-4.339 2.742-4.359 5.425-.013 1.838-.002 3.676-.002 5.513M.923 19.901V7.25c.026-.11.059-.217.077-.328C1.532 3.77 3.283 1.605 6.263.472 6.866.242 7.523.154 8.153 0H20.77c.086.024.17.057.257.07 3.2.514 5.383 2.29 6.518 5.328.221.592.307 1.234.456 1.853V19.9c-.026.109-.059.217-.077.327-.536 3.17-2.3 5.337-5.3 6.464-.592.222-1.234.31-1.854.46H8.154c-.086-.024-.17-.057-.257-.071-3.2-.513-5.383-2.289-6.518-5.327-.22-.592-.307-1.234-.456-1.853"/>
        <path d="M14.465 8.64a4.92 4.92 0 0 0-4.925 4.913 4.92 4.92 0 0 0 4.918 4.958 4.92 4.92 0 0 0 4.925-4.913 4.92 4.92 0 0 0-4.918-4.958m-.004 12.34c-4.057 0-7.391-3.35-7.383-7.414.008-4.07 3.352-7.41 7.403-7.394 4.047.016 7.356 3.339 7.364 7.394.008 4.066-3.327 7.414-7.384 7.413M21.748 7.403a1.12 1.12 0 0 1-1.13-1.118 1.12 1.12 0 0 1 1.095-1.115 1.12 1.12 0 0 1 1.131 1.118 1.12 1.12 0 0 1-1.096 1.115"/>
    </g>
</svg>
