<svg xmlns="http://www.w3.org/2000/svg" width="116" height="108" viewBox="0 0 116 108">
    <g fill="none" fill-rule="evenodd">
        <path fill="#E6E6E6" d="M57.8 107.509c-31.757 0-57.5-4.03-57.5-9s25.743-9 57.5-9c31.756 0 57.5 4.03 57.5 9s-25.744 9-57.5 9"/>
        <path fill="#646464" d="M93.725 67.327c7.665 0 13.88 6.19 13.88 13.827 0 7.636-6.215 13.827-13.88 13.827-7.665 0-13.879-6.19-13.879-13.827 0-7.636 6.214-13.827 13.88-13.827"/>
        <path fill="#E6E6E6" d="M93.725 74.24c3.833 0 6.94 3.096 6.94 6.914 0 3.818-3.107 6.913-6.94 6.913s-6.94-3.095-6.94-6.913 3.107-6.913 6.94-6.913"/>
        <path fill="#646464" d="M22.595 67.327c7.665 0 13.879 6.19 13.879 13.827 0 7.636-6.214 13.827-13.88 13.827-7.665 0-13.878-6.19-13.878-13.827 0-7.636 6.213-13.827 13.879-13.827"/>
        <path fill="#E6E6E6" d="M22.595 74.24c3.832 0 6.94 3.096 6.94 6.914 0 3.818-3.108 6.913-6.94 6.913-3.833 0-6.94-3.095-6.94-6.913s3.107-6.913 6.94-6.913M59.028 75.968h17.349l21.72-10.37s5.205-31.11-10.409-38.023h-5.205c8.672 13.826 4.68 32.739 0 41.48H59.028v6.913"/>
        <path fill="#DFDCDC" d="M87.688 69.055c4.68-8.741 8.672-27.654 0-41.48h-5.205c8.672 13.826 4.68 32.739 0 41.48h5.205"/>
        <path fill="#E6E6E6" d="M57.293 80.99c1.371-1.355 19.084-29.382 0-38.024-3.416-1.547-23.797-4.2-38.168 5.185C1.031 59.968 3.8 78.243 3.511 80.99h53.782"/>
        <path fill="#DFDCDC" d="M24.21 48.151c7.23-4.722 15.982-6.396 23.33-6.697-8.07-.335-19.42.823-28.415 6.697C1.031 59.968 3.8 78.243 3.511 80.99h5.085c.287-2.747-2.481-21.022 15.614-32.839"/>
        <path fill="#E6E6E6" d="M93.726 72.511c6.598 0 11.147 4.082 13.926 8.642h3.422c0-9.545-7.767-17.283-17.348-17.283-9.582 0-17.35 7.738-17.35 17.283h3.47c2.509-4.56 6.339-8.642 13.88-8.642"/>
        <path fill="#DFDCDC" d="M96.328 64.064a17.55 17.55 0 0 0-2.602-.194c-9.582 0-17.35 7.738-17.35 17.283h3.47a22.43 22.43 0 0 1 2.016-3.082c1.309-7.236 7.133-12.908 14.466-14.007"/>
        <path fill="#E6E6E6" d="M38.21 32.76h19.083v10.37H29.535V41.4c0-4.772 3.883-8.641 8.674-8.641"/>
        <path fill="#DFDCDC" d="M43.414 32.76h-5.205c-4.79 0-8.674 3.869-8.674 8.641v1.729h5.204V41.4c0-4.772 3.884-8.641 8.675-8.641"/>
        <path fill="#33BDD3" d="M81.58 27.576h5.206v-6.914H81.58z"/>
        <path fill="#E6E6E6" d="M86.786 20.661l8.674-1.728v10.37l-8.674-1.728V20.66"/>
        <path fill="#33BDD3" d="M72.906 1.65c2.875 0 5.205 2.322 5.205 5.186 0 2.863-2.33 5.184-5.205 5.184-2.874 0-5.204-2.321-5.204-5.184 0-2.864 2.33-5.185 5.204-5.185"/>
        <path fill="#F5CA43" d="M6.981 43.13h19.084V25.848H6.98z"/>
        <path fill="#F6BE30" d="M6.981 32.76h19.084v-6.913H6.98z"/>
        <path fill="#F5CA43" d="M3.511 29.304h26.024v-8.642H3.51z"/>
        <path fill="#A2A1A1" d="M108.548 79.533c-3.685-5.581-8.918-8.642-14.822-8.642-8.432 0-12.5 4.705-14.826 8.642h-.813c.816-7.878 7.518-14.043 15.639-14.043 8.12 0 14.822 6.165 15.638 14.043h-.816zM93.726 75.86c2.93 0 5.313 2.374 5.313 5.293s-2.384 5.293-5.313 5.293c-2.93 0-5.314-2.374-5.314-5.293s2.384-5.293 5.314-5.293zm0 17.5c-6.62 0-12.027-5.258-12.243-11.8 1.617-2.824 3.491-4.79 5.768-5.985a8.476 8.476 0 0 0-2.092 5.578c0 4.706 3.843 8.534 8.567 8.534 4.723 0 8.566-3.828 8.566-8.534 0-1.907-.632-3.67-1.698-5.093 2.37 1.457 4.128 3.529 5.375 5.468-.2 6.557-5.613 11.831-12.243 11.831zM63.049 74.347a61.09 61.09 0 0 0 1.62-3.673H77.94a18.833 18.833 0 0 0-1.917 3.673H63.05zm-6.557 5.021H5.15v-.006c-.09-5.452-.329-19.934 14.866-29.857 2.773-1.81 5.975-3.27 9.518-4.338.272-.082.506-.229.692-.418h27.038c3.87 1.944 6.13 4.869 6.904 8.941 1.06 5.57-.968 12.102-2.856 16.6-1.848 4.403-3.949 7.815-4.821 9.078zm-39.004 3.24h10.214a5.318 5.318 0 0 1-10.214 0zm5.107 10.75c-6.261 0-11.437-4.703-12.162-10.75h3.723a8.569 8.569 0 0 0 8.439 7.078 8.569 8.569 0 0 0 8.439-7.077h3.723c-.725 6.046-5.9 10.75-12.162 10.75zm8.566-51.958c0-3.871 3.162-7.021 7.048-7.021h17.457v7.13H31.161V41.4zm52.155-19.12h1.843v3.673h-1.951v-3.672h.108zm10.518 5.046l-4.983-.993c-.146-.07-.29-.143-.439-.21V21.99l5.422-1.08v6.417zM72.907 10.399a3.576 3.576 0 0 1-3.578-3.564 3.576 3.576 0 0 1 3.578-3.565c1.973 0 3.578 1.599 3.578 3.565a3.576 3.576 0 0 1-3.578 3.564zm27.133 52.928c.443-3.908.926-10.816-.043-17.786a1.625 1.625 0 0 0-1.834-1.383 1.62 1.62 0 0 0-1.388 1.827c.902 6.494.445 13.1.082 16.523a19.12 19.12 0 0 0-3.131-.259c-2.555 0-4.992.507-7.219 1.423 1.604-4.82 2.57-10.255 2.7-15.404.182-7.083-1.176-13.615-3.943-19.073h1.361l1.158.23c3.221 1.698 5.666 4.809 7.27 9.267a1.628 1.628 0 0 0 2.08.98 1.618 1.618 0 0 0 .982-2.073c-.972-2.702-2.23-4.99-3.76-6.864l.787.157c.991.197 1.945-.583 1.945-1.589v-10.37c0-1.006-.954-1.786-1.945-1.589l-6.73 1.341v-8.394a1.62 1.62 0 0 0-1.022-1.504l-7.749-3.088a6.833 6.833 0 0 0-6.734-5.67c-3.766 0-6.83 3.053-6.83 6.806 0 3.752 3.064 6.805 6.83 6.805a6.84 6.84 0 0 0 6.45-4.564l5.803 2.312v7.653H69.437c-.898 0-1.626.725-1.626 1.62 0 .895.728 1.62 1.626 1.62h10.518v5.294c0 .889.719 1.61 1.609 1.62 7.447 12.726 3.945 28.981.63 36.704-.047.109-.08.22-.102.33-.491.382-.963.786-1.414 1.212a1.62 1.62 0 0 0-.127-.006H65.845c1.38-4.243 2.35-9.225 1.613-13.819-.844-5.254-3.719-9.173-8.538-11.658V32.76c0-.895-.728-1.62-1.627-1.62H38.21c-5.68 0-10.301 4.603-10.301 10.262v.113c-.036-.002-.072-.005-.109-.005h-.108V30.923h1.843c.898 0 1.627-.725 1.627-1.62v-8.641c0-.895-.729-1.62-1.627-1.62H3.512c-.899 0-1.627.725-1.627 1.62v8.641c0 .895.728 1.62 1.627 1.62h1.843V41.51H3.512c-.899 0-1.627.725-1.627 1.62 0 .895.728 1.62 1.627 1.62h18.29a36.36 36.36 0 0 0-3.568 2.046C1.54 57.698 1.81 74.044 1.898 79.416c.007.382.017.765.008 1.148-.006.293-.042.574.04.862A1.64 1.64 0 0 0 3.51 82.61h3.65C7.9 90.446 14.539 96.6 22.595 96.6c8.057 0 14.696-6.154 15.435-13.99h19.263c.43 0 .84-.169 1.145-.47.466-.46 1.62-2.169 2.938-4.552H75.09a18.862 18.862 0 0 0-.34 3.565c0 .895.728 1.62 1.627 1.62h1.929c.816 7.76 7.42 13.827 15.42 13.827s14.604-6.068 15.42-13.827h1.929c.898 0 1.626-.725 1.626-1.62 0-8.219-5.293-15.228-12.66-17.826z"/>
        <path fill="#33BDD3" d="M8.608 41.51h15.83V30.922H8.608zM5.138 27.683h22.77v-5.401H5.138z"/>
        <path fill="#C6C6C6" d="M55.558 51.88H39.944c-.899 0-1.626.725-1.626 1.62 0 .895.727 1.62 1.626 1.62h15.614c.898 0 1.626-.725 1.626-1.62 0-.895-.728-1.62-1.626-1.62M52.088 62.25H29.535c-.899 0-1.627.725-1.627 1.62 0 .895.728 1.62 1.627 1.62h22.553c.899 0 1.627-.725 1.627-1.62 0-.895-.728-1.62-1.627-1.62M46.884 72.62H19.125c-.898 0-1.626.725-1.626 1.62 0 .895.728 1.62 1.626 1.62h27.759c.898 0 1.626-.725 1.626-1.62 0-.895-.728-1.62-1.626-1.62"/>
    </g>
</svg>
