<svg xmlns="http://www.w3.org/2000/svg" xmlns:xlink="http://www.w3.org/1999/xlink" width="687" height="630" viewBox="0 0 687 630">
    <defs>
        <path id="a" d="M68.319 69.2H0V.619h68.319z"/>
        <path id="c" d="M0 124.2h123.932V.193H0z"/>
        <path id="e" d="M0 .984v94.732h131.526V.984H0z"/>
        <path id="g" d="M0 .998v42.201h42.2V.998H0z"/>
    </defs>
    <g fill="none" fill-rule="evenodd">
        <g fill="#33BDD3" opacity=".356">
            <path d="M130.78 463.18l-37.93 8.062c-9.763 2.075-19.364-4.18-21.446-13.971-2.08-9.792 4.146-19.412 13.908-21.487l37.932-8.062c9.763-2.075 19.364 4.18 21.446 13.971 2.081 9.792-4.146 19.411-13.91 21.487M650.584 352.692l-10.829 2.302c-9.75 2.072-19.344-4.184-21.425-13.976-2.082-9.792 4.138-19.41 13.888-21.482l10.829-2.302c9.752-2.073 19.344 4.184 21.425 13.976 2.082 9.792-4.136 19.41-13.888 21.482"/>
            <path d="M726.611 226.12l-33.505 7.121c-9.778 2.078-19.38-4.12-21.447-13.843-2.067-9.725 4.184-19.292 13.962-21.37l14.883-3.164c9.778-2.078 16.029-11.645 13.962-21.37-2.067-9.724-11.669-15.921-21.447-13.843L14.738 303.824C4.96 305.902-1.291 315.47.776 325.194s11.669 15.922 21.447 13.843l11.838-2.516c9.777-2.078 19.379 4.12 21.446 13.844s-4.184 19.291-13.96 21.37l-14.011 2.977c-10.077 2.142-16.57 11.761-14.503 21.485 2.066 9.724 11.911 15.87 21.988 13.729l167.674-35.64c9.778-2.08 19.38 4.119 21.447 13.843s-4.184 19.291-13.962 21.37l-29.847 6.344c-9.778 2.078-16.029 11.645-13.962 21.37 2.067 9.724 11.669 15.921 21.447 13.843l402.9-85.639c9.778-2.078 16.029-11.646 13.962-21.37s-11.669-15.922-21.447-13.843l-26.82 5.7c-9.777 2.079-19.38-4.12-21.446-13.843-2.067-9.724 4.184-19.292 13.96-21.37l185.17-39.359c10.077-2.142 16.57-11.76 14.503-21.484-2.067-9.725-11.91-15.871-21.989-13.729"/>
            <g>
                <path d="M542.258 7.357l30.718-6.53c7.906-1.68 16.005 4.909 18.09 14.717 2.085 9.809-2.634 19.122-10.54 20.803l-30.718 6.529c-7.907 1.68-16.006-4.908-18.091-14.717-2.085-9.808 2.634-19.122 10.54-20.802M121.3 96.834l8.77-1.864c7.896-1.678 15.989 4.912 18.074 14.72 2.085 9.809-2.628 19.12-10.525 20.8l-8.77 1.863c-7.897 1.679-15.988-4.911-18.073-14.72-2.085-9.808 2.627-19.12 10.524-20.799M118.875 222.802l21.698-4.612c6.332-1.346 12.806 3.87 14.46 11.648 1.653 7.78-2.14 15.177-8.472 16.523l-9.638 2.048c-6.333 1.346-10.125 8.744-8.472 16.523 1.654 7.78 8.127 12.994 14.46 11.648l439.259-93.367c6.332-1.346 10.125-8.743 8.471-16.523-1.653-7.779-8.127-12.994-14.46-11.648l-7.666 1.63c-6.331 1.345-12.805-3.87-14.459-11.649-1.653-7.78 2.14-15.176 8.471-16.522l9.073-1.929c6.526-1.387 10.476-8.817 8.823-16.596-1.654-7.78-8.285-12.961-14.81-11.574l-108.587 23.08c-6.333 1.347-12.806-3.868-14.46-11.648-1.653-7.779 2.14-15.176 8.472-16.522l19.329-4.109c6.332-1.346 10.125-8.743 8.471-16.522-1.653-7.78-8.127-12.994-14.46-11.648l-260.92 55.46c-6.332 1.346-10.125 8.743-8.471 16.523 1.653 7.779 8.127 12.994 14.46 11.648l17.368-3.692c6.332-1.346 12.805 3.87 14.459 11.648 1.653 7.78-2.14 15.177-8.47 16.523l-119.917 25.489c-6.527 1.387-10.476 8.817-8.822 16.597 1.653 7.779 8.283 12.96 14.81 11.573"/>
            </g>
        </g>
        <path fill="#58DAEE" d="M507.771 447.266H434.2c-3.586 0-6.494-2.898-6.494-6.47v-4.834c0-3.573 2.908-6.47 6.494-6.47h73.571c3.586 0 6.494 2.897 6.494 6.47v4.833c0 3.573-2.908 6.47-6.494 6.47z"/>
        <path fill="#D0D2D3" d="M507.771 429.493h-9.02c3.587 0 6.495 2.897 6.495 6.47v4.833c0 3.573-2.908 6.47-6.494 6.47h-.037v11.367h9.02v-11.366h.036c3.586 0 6.494-2.898 6.494-6.47v-4.834c0-3.573-2.908-6.47-6.494-6.47" opacity=".5"/>
        <path fill="#25A4B8" d="M434.201 432.19c-2.089 0-3.79 1.69-3.79 3.774v4.83c0 2.082 1.701 3.777 3.79 3.777h73.57c2.088 0 3.79-1.695 3.79-3.776v-4.831c0-2.084-1.702-3.775-3.79-3.775H434.2zm73.57 17.773H434.2c-5.074 0-9.202-4.113-9.202-9.168v-4.831c0-5.054 4.128-9.167 9.202-9.167h73.57c5.074 0 9.201 4.113 9.201 9.167v4.83c0 5.056-4.127 9.169-9.202 9.169z"/>
        <path fill="#FEFEFE" d="M434.236 458.632h73.5v-11.366h-73.5z"/>
        <path fill="#25A4B8" d="M436.942 455.936h68.087v-5.974h-68.087v5.974zm70.793 5.392h-73.499a2.702 2.702 0 0 1-2.706-2.696v-11.366a2.702 2.702 0 0 1 2.706-2.696h73.5a2.702 2.702 0 0 1 2.705 2.696v11.366a2.702 2.702 0 0 1-2.706 2.696z"/>
        <path fill="#FEFEFE" d="M507.615 458.632h-73.259c-3.586 0-6.494 2.897-6.494 6.47v82.78c0 3.573 2.908 6.47 6.494 6.47h73.26c3.585 0 6.493-2.897 6.493-6.47v-82.78c0-3.573-2.908-6.47-6.494-6.47"/>
        <path fill="#D0D2D3" d="M434.356 554.352h73.26c3.586 0 6.494-2.898 6.494-6.47v-82.78c0-3.574-2.908-6.47-6.495-6.47h-8.898s14.826 95.72-64.36 95.72" opacity=".5"/>
        <path fill="#25A4B8" d="M434.356 461.329a3.784 3.784 0 0 0-3.788 3.774v82.778c0 2.081 1.7 3.774 3.788 3.774h73.26a3.784 3.784 0 0 0 3.787-3.774v-82.778a3.783 3.783 0 0 0-3.788-3.774h-73.259zm73.26 95.718h-73.26c-5.073 0-9.2-4.112-9.2-9.166v-82.778c0-5.054 4.127-9.166 9.2-9.166h73.26c5.072 0 9.2 4.112 9.2 9.166v82.778c0 5.054-4.128 9.166-9.2 9.166z"/>
        <path fill="#58DAEE" d="M441.105 535.722H499.7v-59.706h-58.594z"/>
        <path fill="#25A4B8" d="M443.811 533.026h53.18v-54.314h-53.18v54.314zm55.886 5.392h-58.592a2.702 2.702 0 0 1-2.705-2.696v-59.706a2.702 2.702 0 0 1 2.705-2.696h58.592a2.702 2.702 0 0 1 2.706 2.696v59.706a2.702 2.702 0 0 1-2.706 2.696z"/>
        <path fill="#25A4B8" d="M470.401 505.189a2.702 2.702 0 0 1-2.706-2.696v-16.237a2.702 2.702 0 0 1 2.706-2.696 2.702 2.702 0 0 1 2.706 2.696v16.237a2.702 2.702 0 0 1-2.706 2.696"/>
        <path fill="#25A4B8" d="M478.55 497.07h-16.296a2.702 2.702 0 0 1-2.706-2.695 2.702 2.702 0 0 1 2.706-2.696h16.296a2.702 2.702 0 0 1 2.706 2.696 2.702 2.702 0 0 1-2.706 2.696"/>
        <path fill="#62B5E5" d="M452.385 512.902h35.593"/>
        <path fill="#25A4B8" d="M487.979 515.599h-35.593a2.7 2.7 0 0 1-2.706-2.696 2.7 2.7 0 0 1 2.706-2.696h35.593a2.702 2.702 0 0 1 2.706 2.696 2.702 2.702 0 0 1-2.706 2.696"/>
        <path fill="#62B5E5" d="M457.647 522.153h25.07"/>
        <path fill="#25A4B8" d="M482.717 524.85h-25.07a2.7 2.7 0 0 1-2.705-2.696 2.7 2.7 0 0 1 2.706-2.696h25.069a2.702 2.702 0 0 1 2.706 2.696 2.702 2.702 0 0 1-2.706 2.696"/>
        <g>
            <path fill="#FEFEFE" d="M282.782 267.01l-1.758-1.761c-9.776-9.792-9.776-25.67 0-35.462l63.844-63.95c9.776-9.792 25.625-9.792 35.401 0l1.76 1.761c9.776 9.793 9.776 25.67 0 35.462l-63.845 63.95c-9.776 9.793-25.626 9.793-35.402 0"/>
            <path fill="#25A4B8" d="M362.568 161.199c-5.72 0-11.443 2.182-15.799 6.545l-63.843 63.95c-8.71 8.725-8.71 22.922 0 31.649l1.76 1.76c8.71 8.728 22.885 8.728 31.596 0l63.844-63.949c4.221-4.227 6.545-9.846 6.545-15.824s-2.324-11.598-6.545-15.825l-1.759-1.76c-4.356-4.364-10.079-6.546-15.799-6.546m-62.083 115.838c-7.101 0-14.2-2.707-19.605-8.122l-1.76-1.76c-5.237-5.246-8.12-12.22-8.12-19.638 0-7.418 2.883-14.39 8.12-19.637l63.844-63.948c5.237-5.245 12.198-8.135 19.604-8.135 7.406 0 14.368 2.89 19.605 8.135l1.758 1.762c5.237 5.244 8.122 12.218 8.122 19.636 0 7.417-2.885 14.392-8.122 19.636l-63.844 63.95c-5.404 5.414-12.503 8.12-19.602 8.12"/>
            <path fill="#050606" d="M382.029 167.599l-1.758-1.761a25.1 25.1 0 0 0-2.458-2.132c7.564 9.834 6.87 23.988-2.128 33l-63.844 63.95c-8.997 9.013-23.128 9.708-32.945 2.132.655.85 1.349 1.68 2.128 2.46l1.758 1.763c9.776 9.792 25.627 9.792 35.403 0l63.844-63.952c9.776-9.792 9.776-25.668 0-35.46" opacity=".15"/>
            <path fill="#F7CDB2" d="M330.53 240.505L307.262 217.2l25.037-25.08 23.268 23.304z"/>
            <path fill="#2E2E31" d="M311.068 217.199l19.463 19.495 21.231-21.27-19.46-19.492-21.234 21.267zm19.463 26.002c-.714 0-1.4-.284-1.904-.79l-23.268-23.306a2.706 2.706 0 0 1 0-3.813l25.039-25.079a2.689 2.689 0 0 1 3.807 0l23.264 23.305a2.697 2.697 0 0 1 0 3.812l-25.037 25.08c-.504.507-1.19.79-1.901.79z"/>
            <path fill="#58DAEE" d="M330.53 240.505L307.262 217.2l25.037-25.08 23.268 23.304z"/>
            <path fill="#25A4B8" d="M311.068 217.199l19.463 19.495 21.231-21.27-19.46-19.492-21.234 21.267zm19.463 26.002c-.714 0-1.4-.284-1.904-.79l-23.268-23.306a2.706 2.706 0 0 1 0-3.813l25.039-25.079a2.689 2.689 0 0 1 3.807 0l23.264 23.305a2.697 2.697 0 0 1 0 3.812l-25.037 25.08c-.504.507-1.19.79-1.901.79z"/>
            <path fill="#050606" d="M349.224 209.071l-25.039 25.08 6.344 6.353 25.04-25.078z" opacity=".15"/>
            <path fill="#25A4B8" d="M347.204 187.517a2.369 2.369 0 0 1-3.353 0 2.378 2.378 0 0 1 0-3.359 2.369 2.369 0 0 1 3.353 0 2.378 2.378 0 0 1 0 3.36M353.57 181.142a2.369 2.369 0 0 1-3.354 0 2.378 2.378 0 0 1 0-3.359 2.369 2.369 0 0 1 3.353 0 2.378 2.378 0 0 1 0 3.359M359.842 174.859a2.369 2.369 0 0 1-3.354 0 2.378 2.378 0 0 1 0-3.359 2.369 2.369 0 0 1 3.354 0 2.378 2.378 0 0 1 0 3.359M363.174 203.513a2.369 2.369 0 0 1-3.353 0 2.378 2.378 0 0 1 0-3.358 2.369 2.369 0 0 1 3.353 0 2.378 2.378 0 0 1 0 3.358M369.539 197.138a2.369 2.369 0 0 1-3.353 0 2.378 2.378 0 0 1 0-3.359 2.369 2.369 0 0 1 3.353 0 2.378 2.378 0 0 1 0 3.36M375.811 190.855a2.369 2.369 0 0 1-3.353 0 2.378 2.378 0 0 1 0-3.358 2.369 2.369 0 0 1 3.353 0 2.378 2.378 0 0 1 0 3.358M358.7 192.563a2.369 2.369 0 0 1-3.354 0 2.378 2.378 0 0 1 0-3.358 2.369 2.369 0 0 1 3.353 0 2.378 2.378 0 0 1 0 3.358M352.76 198.513a2.369 2.369 0 0 1-3.354 0 2.378 2.378 0 0 1 0-3.359 2.369 2.369 0 0 1 3.354 0 2.378 2.378 0 0 1 0 3.36M364.972 186.28a2.369 2.369 0 0 1-3.353 0 2.378 2.378 0 0 1 0-3.358 2.369 2.369 0 0 1 3.353 0 2.378 2.378 0 0 1 0 3.359M371.39 179.85a2.369 2.369 0 0 1-3.352 0 2.378 2.378 0 0 1 0-3.358 2.369 2.369 0 0 1 3.353 0 2.378 2.378 0 0 1 0 3.359M302.668 232.128a2.378 2.378 0 0 0 0-3.359 2.369 2.369 0 0 0-3.353 0 2.378 2.378 0 0 0 0 3.359 2.369 2.369 0 0 0 3.353 0M296.303 238.503a2.378 2.378 0 0 0 0-3.359 2.369 2.369 0 0 0-3.353 0 2.378 2.378 0 0 0 0 3.36 2.369 2.369 0 0 0 3.353 0M290.03 244.786a2.378 2.378 0 0 0 0-3.359 2.369 2.369 0 0 0-3.353 0 2.378 2.378 0 0 0 0 3.36 2.369 2.369 0 0 0 3.354 0M318.637 248.124a2.378 2.378 0 0 0 0-3.359 2.369 2.369 0 0 0-3.353 0 2.378 2.378 0 0 0 0 3.36 2.369 2.369 0 0 0 3.353 0M312.273 254.5a2.378 2.378 0 0 0 0-3.36 2.369 2.369 0 0 0-3.353 0 2.378 2.378 0 0 0 0 3.36 2.369 2.369 0 0 0 3.353 0M306 260.782a2.378 2.378 0 0 0 0-3.358 2.369 2.369 0 0 0-3.353 0 2.378 2.378 0 0 0 0 3.358 2.369 2.369 0 0 0 3.353 0M307.706 243.642a2.378 2.378 0 0 0 0-3.359 2.369 2.369 0 0 0-3.354 0 2.378 2.378 0 0 0 0 3.359 2.369 2.369 0 0 0 3.354 0M313.645 237.692a2.378 2.378 0 0 0 0-3.359 2.369 2.369 0 0 0-3.353 0 2.378 2.378 0 0 0 0 3.36 2.369 2.369 0 0 0 3.353 0M301.433 249.925a2.378 2.378 0 0 0 0-3.359 2.369 2.369 0 0 0-3.353 0 2.378 2.378 0 0 0 0 3.359 2.369 2.369 0 0 0 3.353 0M295.014 256.355a2.378 2.378 0 0 0 0-3.36 2.369 2.369 0 0 0-3.353 0 2.378 2.378 0 0 0 0 3.36 2.369 2.369 0 0 0 3.353 0"/>
        </g>
        <g>
            <path fill="#FEFEFE" d="M205.219 510.439c-6.536 16.177-24.897 24.012-41.012 17.501-16.115-6.51-23.88-24.901-17.343-41.078 6.535-16.177 24.896-24.012 41.01-17.501 16.116 6.51 23.88 24.901 17.345 41.078"/>
            <path fill="#D0D2D3" d="M197.688 475.695c4.083 7.898 4.84 17.468 1.24 26.379-6.535 16.175-24.896 24.012-41.011 17.501a31.23 31.23 0 0 1-9.812-6.335c3.328 6.443 8.863 11.776 16.101 14.7 16.115 6.511 34.476-1.326 41.012-17.5 5.012-12.406 1.593-26.092-7.53-34.745" opacity=".5"/>
            <g transform="rotate(22 -1087.77 631.74)">
                <mask id="b" fill="#fff">
                    <use xlink:href="#a"/>
                </mask>
                <path fill="#25A4B8" d="M34.16 6.019C18.29 6.019 5.38 18.979 5.38 34.91c0 15.928 12.91 28.89 28.781 28.89 15.869 0 28.78-12.962 28.78-28.89 0-15.932-12.911-28.892-28.78-28.892m0 63.182C15.324 69.2 0 53.818 0 34.91 0 16 15.324.619 34.16.619 52.995.619 68.32 16.002 68.32 34.91c0 18.907-15.324 34.29-34.159 34.29" mask="url(#b)"/>
            </g>
            <path fill="#D0D2D3" d="M146.863 486.862a31.874 31.874 0 0 0-1.39 4.314l57.75 23.333a31.874 31.874 0 0 0 1.995-4.07 31.874 31.874 0 0 0 1.392-4.315l-57.75-23.332a31.874 31.874 0 0 0-1.997 4.07" opacity=".5"/>
            <path fill="#25A4B8" d="M148.73 489.58l53.257 21.518c.268-.554.513-1.111.737-1.667.226-.557.437-1.128.627-1.71l-53.257-21.517a28.244 28.244 0 0 0-1.364 3.377m53.482 27.432l-57.753-23.334a2.695 2.695 0 0 1-1.6-3.147c.4-1.614.908-3.187 1.51-4.678a35.047 35.047 0 0 1 2.162-4.413 2.694 2.694 0 0 1 3.338-1.152l57.753 23.334a2.693 2.693 0 0 1 1.6 3.147 35.047 35.047 0 0 1-1.51 4.676 35.111 35.111 0 0 1-2.163 4.415 2.693 2.693 0 0 1-3.337 1.152"/>
            <path fill="#FEFEFE" d="M204.874 544.37c-11.47-4.633-17.048-17.846-12.396-29.36l23.938-59.249c4.652-11.514 17.843-17.143 29.313-12.51 11.47 4.635 17.049 17.848 12.397 29.362l-23.938 59.249c-4.652 11.514-17.844 17.143-29.314 12.509"/>
            <path fill="#58DAEE" d="M245.73 443.252c-11.47-4.634-24.662.995-29.314 12.509l-11.97 29.625 41.71 16.852 11.97-29.625c4.652-11.514-.927-24.727-12.397-29.361"/>
            <path fill="#050606" d="M245.73 443.252a22.317 22.317 0 0 0-4.328-1.257c8.71 5.784 12.486 17.172 8.411 27.26l-23.938 59.248c-4.075 10.087-14.703 15.655-24.986 13.766a22.317 22.317 0 0 0 3.985 2.102c11.47 4.634 24.662-.996 29.314-12.51l23.938-59.248c4.652-11.514-.927-24.727-12.397-29.361" opacity=".15"/>
            <path fill="#25A4B8" d="M244.718 445.756c-10.125-4.09-21.703.849-25.81 11.013l-23.937 59.248c-4.107 10.164.79 21.76 10.915 25.851 10.125 4.09 21.702-.85 25.808-11.013l23.938-59.25c4.107-10.163-.789-21.758-10.914-25.85m-40.855 101.12c-12.874-5.202-19.102-19.949-13.88-32.873l23.938-59.249c5.222-12.924 19.945-19.206 32.82-14.004s19.1 19.948 13.879 32.872l-23.938 59.249c-5.222 12.924-19.944 19.206-32.819 14.005"/>
            <path fill="#25A4B8" d="M207.951 483.889l36.724 14.837 10.957-27.12c4.107-10.164-.789-21.76-10.914-25.85s-21.703.849-25.81 11.013l-10.957 27.12zm37.195 20.851l-41.711-16.852a2.696 2.696 0 0 1-1.483-3.511l11.97-29.623c5.22-12.925 19.945-19.207 32.82-14.005 12.874 5.202 19.1 19.948 13.878 32.872l-11.969 29.624a2.696 2.696 0 0 1-3.505 1.495z"/>
        </g>
        <g>
            <path fill="#FEFEFE" d="M418.59 366.985c3.535-3.54 3.535-9.281 0-12.822l-17.983-18.014a9.043 9.043 0 0 0-12.803 0l-61.254 61.355a21.157 21.157 0 0 0-6.065 12.715l-1.594 14.994-13.845 13.867c-2.759 2.763-3.231 7.247-.766 10.273 2.83 3.472 8.005 3.663 11.092.57l13.841-13.863 15.427-1.646a21.112 21.112 0 0 0 12.696-6.076l61.254-61.353z"/>
            <path fill="#58DAEE" d="M310.409 433.708l-5.364 5.373c-2.757 2.761-3.23 7.245-.764 10.271 2.83 3.474 8.004 3.663 11.09.57l5.614-5.62-10.576-10.594z"/>
            <path fill="#050606" d="M418.59 354.162l-6.354-6.364c3.537 3.542 3.537 9.282 0 12.823l-61.254 61.353a21.107 21.107 0 0 1-12.697 6.077l-15.426 1.645-13.841 13.863c-1.706 1.71-4.046 2.378-6.28 2.081.153 1.327.65 2.617 1.543 3.712 2.83 3.474 8.004 3.663 11.091.57l13.842-13.863 15.426-1.645a21.1 21.1 0 0 0 12.696-6.075l61.255-61.355c3.534-3.54 3.534-9.281 0-12.822" opacity=".15"/>
            <g transform="translate(300 330.608)">
                <mask id="d" fill="#fff">
                    <use xlink:href="#c"/>
                </mask>
                <path fill="#25A4B8" d="M94.205 5.589a6.335 6.335 0 0 0-4.494 1.861L28.457 68.805a18.507 18.507 0 0 0-5.293 11.093L21.57 94.892a2.688 2.688 0 0 1-.774 1.622L6.95 110.381c-1.855 1.858-2.11 4.781-.58 6.655a4.723 4.723 0 0 0 3.466 1.757 4.728 4.728 0 0 0 3.628-1.386l13.841-13.866a2.697 2.697 0 0 1 1.621-.774l15.427-1.645a18.463 18.463 0 0 0 11.075-5.3l61.256-61.356c2.478-2.48 2.478-6.521 0-9.001L98.702 7.45a6.34 6.34 0 0 0-4.497-1.861M10.08 124.2a10.182 10.182 0 0 1-7.886-3.75c-3.257-3.992-2.84-10.092.946-13.886L16.31 93.37l1.493-14.047a23.922 23.922 0 0 1 6.842-14.337L85.899 3.632c4.58-4.588 12.034-4.586 16.614 0l17.984 18.013c4.58 4.588 4.58 12.053 0 16.641L59.24 99.639a23.864 23.864 0 0 1-14.318 6.85l-14.477 1.547-13.17 13.189a10.184 10.184 0 0 1-7.197 2.975" mask="url(#d)"/>
            </g>
            <path fill="#25A4B8" d="M310.408 437.527l-3.457 3.463c-1.855 1.858-2.11 4.78-.58 6.653a4.722 4.722 0 0 0 3.468 1.759 4.674 4.674 0 0 0 3.626-1.388l3.708-3.712-6.765-6.775zm-.328 17.282a10.189 10.189 0 0 1-7.886-3.75c-3.258-3.992-2.841-10.094.945-13.887l5.363-5.374c1.01-1.012 2.8-1.014 3.813 0l10.574 10.594a2.702 2.702 0 0 1 0 3.818l-5.612 5.622a10.175 10.175 0 0 1-7.197 2.977z"/>
            <path fill="#58DAEE" d="M336.667 418.206c-1.864-1.867-1.864-4.922 0-6.788l50.8-50.883a4.8 4.8 0 0 1 6.777 0c1.864 1.867 1.864 4.922 0 6.788l-50.8 50.883a4.8 4.8 0 0 1-6.777 0"/>
            <path fill="#25A4B8" d="M390.855 361.83a2.09 2.09 0 0 0-1.483.614l-50.8 50.883a2.08 2.08 0 0 0-.608 1.485c0 .563.216 1.09.608 1.485.818.819 2.15.819 2.967 0l50.799-50.883c.391-.392.607-.92.607-1.485a2.084 2.084 0 0 0-2.09-2.099m-50.8 60.479a7.463 7.463 0 0 1-5.295-2.195 7.452 7.452 0 0 1-2.187-5.302c0-2.01.777-3.892 2.187-5.305l50.8-50.88a7.485 7.485 0 0 1 10.59 0 7.45 7.45 0 0 1 2.186 5.302 7.45 7.45 0 0 1-2.187 5.303l-50.798 50.882a7.464 7.464 0 0 1-5.296 2.195"/>
            <path fill="#FEFEFE" d="M330.314 394.052l5.163 5.172"/>
            <path fill="#25A4B8" d="M335.477 401.924c-.69 0-1.38-.262-1.907-.79l-5.163-5.173a2.702 2.702 0 0 1 0-3.818 2.693 2.693 0 0 1 3.813 0l5.163 5.172a2.707 2.707 0 0 1 0 3.82 2.685 2.685 0 0 1-1.906.79"/>
            <path fill="#FEFEFE" d="M340.653 383.696l5.163 5.172"/>
            <path fill="#25A4B8" d="M345.815 391.567c-.69 0-1.38-.263-1.907-.79l-5.163-5.171a2.702 2.702 0 0 1 0-3.818 2.693 2.693 0 0 1 3.814 0l5.163 5.17a2.707 2.707 0 0 1 0 3.82 2.685 2.685 0 0 1-1.907.79"/>
            <path fill="#FEFEFE" d="M350.992 373.34l5.163 5.172"/>
            <path fill="#25A4B8" d="M356.155 381.211c-.69 0-1.38-.263-1.906-.79l-5.163-5.171a2.702 2.702 0 0 1 0-3.818 2.693 2.693 0 0 1 3.813 0l5.163 5.17a2.707 2.707 0 0 1 0 3.819 2.685 2.685 0 0 1-1.907.79"/>
            <path fill="#FEFEFE" d="M361.332 362.984l5.163 5.172"/>
            <path fill="#25A4B8" d="M366.494 370.855c-.69 0-1.38-.263-1.907-.79l-5.163-5.172a2.702 2.702 0 0 1 0-3.817 2.693 2.693 0 0 1 3.814 0l5.163 5.17a2.707 2.707 0 0 1 0 3.819 2.685 2.685 0 0 1-1.907.79"/>
            <path fill="#FEFEFE" d="M371.671 352.628l5.163 5.171"/>
            <path fill="#25A4B8" d="M376.835 360.5c-.69 0-1.38-.263-1.907-.79l-5.163-5.174a2.702 2.702 0 0 1 0-3.818 2.693 2.693 0 0 1 3.813 0l5.163 5.172a2.707 2.707 0 0 1 0 3.82 2.685 2.685 0 0 1-1.906.79"/>
        </g>
        <g>
            <path fill="#FEFEFE" d="M380.374 627.15H267.152c-3.564 0-6.454-2.905-6.454-6.488v-76.34c0-3.583 2.89-6.487 6.454-6.487h113.222c3.566 0 6.456 2.904 6.456 6.487v76.34c0 3.583-2.89 6.487-6.456 6.487z"/>
            <path fill="#D0D2D3" d="M380.374 537.835h-3.481c.183 2.798 5.124 89.315-81.65 89.315h85.131c3.566 0 6.456-2.904 6.456-6.487v-76.34c0-3.584-2.89-6.488-6.456-6.488" opacity=".5"/>
            <g transform="translate(258 534.143)">
                <mask id="f" fill="#fff">
                    <use xlink:href="#e"/>
                </mask>
                <path fill="#25A4B8" d="M9.151 6.402c-2.072 0-3.76 1.694-3.76 3.778v76.34c0 2.084 1.688 3.778 3.76 3.778h113.223c2.072 0 3.76-1.694 3.76-3.778V10.18c0-2.084-1.688-3.778-3.76-3.778H9.151zm113.223 89.314H9.151C4.105 95.716 0 91.591 0 86.52V10.18C0 5.11 4.105.984 9.15.984h113.223c5.047 0 9.152 4.125 9.152 9.196v76.34c0 5.071-4.105 9.196-9.152 9.196z" mask="url(#f)"/>
            </g>
            <path fill="#58DAEE" d="M344.123 575.665h-11.437v-11.491h-18.325v11.491h-11.436v18.412h11.436v11.493h18.325v-11.493h11.437z"/>
            <path fill="#25A4B8" d="M317.058 602.861h12.932v-8.782a2.703 2.703 0 0 1 2.696-2.71h8.742v-12.995h-8.742a2.702 2.702 0 0 1-2.696-2.709v-8.784h-12.932v8.784a2.702 2.702 0 0 1-2.696 2.709h-8.74v12.996h8.74a2.703 2.703 0 0 1 2.696 2.709v8.782zm15.628 5.418h-18.324a2.703 2.703 0 0 1-2.696-2.709v-8.782h-8.74a2.703 2.703 0 0 1-2.696-2.71v-18.413a2.703 2.703 0 0 1 2.696-2.709h8.74v-8.782a2.702 2.702 0 0 1 2.696-2.71h18.324a2.702 2.702 0 0 1 2.696 2.71v8.782h8.742a2.703 2.703 0 0 1 2.696 2.709v18.414a2.703 2.703 0 0 1-2.696 2.709h-8.742v8.782a2.703 2.703 0 0 1-2.696 2.71z"/>
            <path fill="#58DAEE" d="M295.243 520.016v17.82h11.222V523.86h35.704v13.975h11.224v-17.82c0-3.59-2.897-6.501-6.47-6.501h-45.21c-3.573 0-6.47 2.911-6.47 6.501"/>
            <path fill="#25A4B8" d="M344.865 535.127h5.83v-15.11c0-2.092-1.69-3.793-3.772-3.793h-45.21c-2.082 0-3.773 1.7-3.773 3.792v15.11h5.83v-11.265a2.703 2.703 0 0 1 2.696-2.709h35.703a2.703 2.703 0 0 1 2.696 2.709v11.266zm8.527 5.418h-11.223a2.702 2.702 0 0 1-2.696-2.71V526.57h-30.311v11.266a2.702 2.702 0 0 1-2.696 2.709h-11.222a2.702 2.702 0 0 1-2.696-2.71v-17.819c0-5.078 4.112-9.21 9.164-9.21h45.211c5.052 0 9.165 4.132 9.165 9.21v17.82a2.702 2.702 0 0 1-2.696 2.709z"/>
            <path fill="#FEFEFE" d="M271.521 537.764h15.277v-9.35h-15.277z"/>
            <path fill="#25A4B8" d="M274.217 535.055h9.885v-3.932h-9.885v3.932zm12.581 5.417h-15.277a2.702 2.702 0 0 1-2.696-2.708v-9.35a2.703 2.703 0 0 1 2.696-2.709h15.277a2.702 2.702 0 0 1 2.696 2.709v9.35a2.701 2.701 0 0 1-2.696 2.708z"/>
            <path fill="#FEFEFE" d="M361.61 537.764h15.278v-9.35H361.61z"/>
            <path fill="#25A4B8" d="M364.307 535.055h9.885v-3.932h-9.885v3.932zm12.58 5.417h-15.276a2.702 2.702 0 0 1-2.696-2.708v-9.35a2.703 2.703 0 0 1 2.696-2.709h15.277a2.702 2.702 0 0 1 2.696 2.709v9.35a2.701 2.701 0 0 1-2.696 2.708z"/>
        </g>
        <g>
            <path fill="#FEFEFE" d="M476.368 327.138L453.96 304.73l45.637-45.639a6.967 6.967 0 0 1 9.851 0l12.557 12.557a6.966 6.966 0 0 1 0 9.853l-45.637 45.637z"/>
            <path fill="#58DAEE" d="M521.76 271.403l3.818-3.818c3.32-3.319 3.32-8.748 0-12.067-3.317-3.317-8.748-3.317-12.065 0l-3.82 3.818 12.068 12.067z"/>
            <path fill="#25A4B8" d="M513.512 259.337l8.248 8.247 1.91-1.908a5.79 5.79 0 0 0 1.697-4.124c0-1.564-.603-3.029-1.697-4.125-2.191-2.187-6.06-2.189-8.248.002l-1.91 1.908zm8.248 14.767a2.71 2.71 0 0 1-1.91-.792l-12.065-12.066a2.7 2.7 0 0 1 0-3.82l3.817-3.817a11.163 11.163 0 0 1 7.944-3.278c3.006 0 5.826 1.165 7.941 3.278a11.165 11.165 0 0 1 3.28 7.943c0 3.006-1.166 5.829-3.28 7.944l-3.817 3.816a2.71 2.71 0 0 1-1.91.792z"/>
            <path fill="#FEFEFE" d="M525.578 255.519l20.82-20.819"/>
            <path fill="#25A4B8" d="M525.578 258.219a2.691 2.691 0 0 1-1.91-.79 2.704 2.704 0 0 1 0-3.82l20.82-20.817a2.699 2.699 0 1 1 3.818 3.818l-20.818 20.818a2.691 2.691 0 0 1-1.91.79"/>
            <path fill="#FEFEFE" d="M445.865 296.636l38.596 38.595"/>
            <path fill="#25A4B8" d="M484.46 337.932a2.691 2.691 0 0 1-1.909-.79l-38.595-38.598a2.699 2.699 0 1 1 3.817-3.818l38.598 38.596a2.704 2.704 0 0 1 0 3.82 2.691 2.691 0 0 1-1.91.79"/>
            <path fill="#FEFEFE" d="M455.34 337.823l-12.067-12.067 15.693-15.69 12.067 12.065z"/>
            <path fill="#050606" d="M449.995 332.478l5.346 5.346 15.69-15.692-5.344-5.346z" opacity=".15"/>
            <path fill="#25A4B8" d="M447.091 325.757l8.25 8.25 11.874-11.877-8.249-8.247-11.875 11.874zm8.25 14.768a2.693 2.693 0 0 1-1.91-.792l-12.067-12.066a2.705 2.705 0 0 1 0-3.82l15.692-15.69a2.699 2.699 0 0 1 3.818 0l12.067 12.065a2.696 2.696 0 0 1 0 3.818l-15.69 15.693a2.693 2.693 0 0 1-1.91.792z"/>
            <path fill="#FEFEFE" d="M453.352 352.66l-24.914-24.914c-2.313-2.313-2.313-6.099 0-8.414 2.313-2.313 6.099-2.313 8.412 0l24.913 24.916c2.315 2.313 2.315 6.098 0 8.411-2.313 2.313-6.098 2.313-8.41 0"/>
            <g transform="translate(424 313.897)">
                <mask id="h" fill="#fff">
                    <use xlink:href="#g"/>
                </mask>
                <path fill="#25A4B8" d="M8.644 6.395c-.832 0-1.665.317-2.297.95a3.254 3.254 0 0 0 0 4.594l24.914 24.914a3.252 3.252 0 0 0 4.594 0 3.254 3.254 0 0 0 0-4.594L10.94 7.345a3.235 3.235 0 0 0-2.297-.95m24.914 36.804a8.62 8.62 0 0 1-6.115-2.529L2.53 15.757c-3.373-3.372-3.373-8.858 0-12.23 3.372-3.373 8.858-3.373 12.23 0l24.913 24.914c3.372 3.372 3.372 8.858 0 12.23a8.616 8.616 0 0 1-6.114 2.528" mask="url(#h)"/>
            </g>
            <path fill="#58DAEE" d="M522.484 272.127l-13.514-13.514a6.29 6.29 0 0 0-8.894 0l-20.835 20.835 22.408 22.408 20.835-20.833a6.29 6.29 0 0 0 0-8.896"/>
            <path fill="#050606" d="M520.293 253.101c1.16 3.05.531 6.639-1.915 9.085l-3.818 3.818.724.723a6.287 6.287 0 0 1 0 8.894l-20.833 20.835-24.383 24.383 6.3 6.3 25.283-25.283 20.833-20.835a6.287 6.287 0 0 0 0-8.894l-.724-.723 3.818-3.818c3.32-3.32 3.32-8.75 0-12.067-1.469-1.469-3.355-2.248-5.285-2.418" opacity=".15"/>
            <path fill="#25A4B8" d="M457.777 304.73l18.59 18.59 43.73-43.73a4.237 4.237 0 0 0 1.249-3.016c0-1.14-.445-2.21-1.25-3.017L507.54 261c-1.611-1.61-4.424-1.61-6.034 0l-43.729 43.73zm18.59 25.108c-.69 0-1.38-.263-1.907-.79l-22.41-22.409a2.7 2.7 0 0 1 0-3.82l45.639-45.637a9.602 9.602 0 0 1 6.834-2.831 9.605 9.605 0 0 1 6.835 2.831l12.557 12.557a9.597 9.597 0 0 1 2.831 6.835 9.601 9.601 0 0 1-2.831 6.836l-45.638 45.637a2.691 2.691 0 0 1-1.91.79z"/>
            <path fill="#25A4B8" d="M483.058 279.448l18.592 18.59 18.926-18.925a3.563 3.563 0 0 0 1.05-2.538c0-.96-.372-1.86-1.05-2.538l-13.515-13.515c-1.357-1.355-3.719-1.355-5.076 0l-18.927 18.926zm18.592 25.108c-.69 0-1.38-.263-1.908-.79l-22.411-22.409a2.705 2.705 0 0 1 0-3.82l20.836-20.832a8.92 8.92 0 0 1 6.356-2.634 8.92 8.92 0 0 1 6.356 2.634l13.514 13.514a8.926 8.926 0 0 1 2.634 6.354c0 2.403-.936 4.66-2.634 6.36l-20.833 20.833a2.691 2.691 0 0 1-1.91.79z"/>
            <path fill="#58DAEE" d="M553.22 268.768c3.625 4.19 3.166 10.526-1.024 14.15-4.19 3.625-10.527 3.168-14.15-1.023-3.625-4.19-1.465-12.965 5.474-23.797 0 0 6.075 6.48 9.7 10.67"/>
            <path fill="#050606" d="M553.22 268.768c-3.625-4.19-9.7-10.67-9.7-10.67-.312.487-.603.966-.897 1.445a246.043 246.043 0 0 1 3.397 3.825c3.625 4.19 3.166 10.526-1.024 14.15-2.333 2.018-5.323 2.725-8.147 2.273.284.789.673 1.5 1.197 2.104 3.623 4.19 9.96 4.648 14.15 1.023 4.19-3.624 4.65-9.96 1.024-14.15" opacity=".15"/>
            <path fill="#25A4B8" d="M543.968 262.545c-5.6 9.684-5.769 15.4-3.879 17.583a7.278 7.278 0 0 0 5.015 2.516 7.28 7.28 0 0 0 5.326-1.767c3.056-2.645 3.393-7.285.747-10.343-2.12-2.45-5.123-5.731-7.209-7.989m1.685 25.52c-.312 0-.625-.012-.94-.035a12.65 12.65 0 0 1-8.71-4.369c-4.468-5.168-2.606-14.763 5.243-27.02a2.697 2.697 0 0 1 4.245-.39c.248.266 6.152 6.568 9.77 10.751 4.594 5.31 4.01 13.367-1.298 17.959a12.638 12.638 0 0 1-8.31 3.103"/>
            <path fill="#FEFEFE" d="M494.713 263.976l8.906 8.906"/>
            <path fill="#25A4B8" d="M503.62 275.582a2.691 2.691 0 0 1-1.91-.79l-8.907-8.908a2.699 2.699 0 1 1 3.818-3.818l8.908 8.907a2.704 2.704 0 0 1 0 3.82 2.691 2.691 0 0 1-1.91.79"/>
            <path fill="#FEFEFE" d="M463.727 294.961l8.906 8.907"/>
            <path fill="#25A4B8" d="M472.633 306.567a2.691 2.691 0 0 1-1.91-.79l-8.905-8.906a2.699 2.699 0 1 1 3.818-3.818l8.906 8.904a2.704 2.704 0 0 1 0 3.82 2.691 2.691 0 0 1-1.91.79"/>
            <path fill="#FEFEFE" d="M486.998 271.69l5.171 5.172"/>
            <path fill="#25A4B8" d="M492.169 279.562a2.691 2.691 0 0 1-1.91-.79l-5.171-5.173a2.7 2.7 0 0 1 3.82-3.818l5.17 5.171a2.704 2.704 0 0 1 0 3.82 2.691 2.691 0 0 1-1.91.79"/>
            <path fill="#FEFEFE" d="M471.292 287.396l5.172 5.171"/>
            <path fill="#25A4B8" d="M476.463 295.267a2.691 2.691 0 0 1-1.91-.79l-5.17-5.173a2.699 2.699 0 1 1 3.818-3.818l5.172 5.171a2.704 2.704 0 0 1 0 3.82 2.691 2.691 0 0 1-1.91.79"/>
        </g>
        <g>
            <path fill="#58DAEE" d="M152.136 243.363c0 4.784-3.537 8.663-7.9 8.663s-10.757-3.879-10.757-8.663c0-4.784 6.394-8.663 10.757-8.663 4.363 0 7.9 3.879 7.9 8.663"/>
            <path fill="#33BDD3" d="M144.236 237.4c-3.33 0-8.058 3.083-8.058 5.963 0 2.879 4.728 5.962 8.058 5.962 2.868 0 5.2-2.673 5.2-5.962 0-3.288-2.332-5.963-5.2-5.963m0 17.325c-5.42 0-13.458-4.77-13.458-11.362 0-6.591 8.039-11.363 13.458-11.363 5.845 0 10.6 5.098 10.6 11.363 0 6.266-4.755 11.362-10.6 11.362"/>
            <path fill="#58DAEE" d="M178.837 243.363c0 4.784 3.537 8.663 7.9 8.663s10.757-3.879 10.757-8.663c0-4.784-6.394-8.663-10.757-8.663-4.363 0-7.9 3.879-7.9 8.663"/>
            <path fill="#33BDD3" d="M186.737 237.4c-2.868 0-5.2 2.675-5.2 5.963 0 3.289 2.332 5.962 5.2 5.962 3.33 0 8.058-3.083 8.058-5.962 0-2.88-4.728-5.963-8.058-5.963m0 17.325c-5.845 0-10.6-5.096-10.6-11.362 0-6.265 4.755-11.363 10.6-11.363 5.42 0 13.458 4.772 13.458 11.363 0 6.592-8.038 11.362-13.458 11.362"/>
            <path fill="#25A4B8" d="M165.487 317.225c-38.92 0-43.886-52.544-44.482-68.65a7.553 7.553 0 0 1 2.133-5.568 7.592 7.592 0 0 1 5.517-2.343h4.824a2.7 2.7 0 1 1 0 5.4h-4.824c-.623 0-1.2.246-1.63.69a2.193 2.193 0 0 0-.624 1.623c.551 14.884 4.995 63.448 39.086 63.448 34.09 0 38.534-48.564 39.085-63.448a2.193 2.193 0 0 0-.623-1.622 2.25 2.25 0 0 0-1.63-.691h-4.825a2.701 2.701 0 0 1 0-5.4h4.824c2.103 0 4.061.831 5.517 2.343a7.553 7.553 0 0 1 2.133 5.568c-.596 16.106-5.562 68.65-44.481 68.65"/>
            <path fill="#25A4B8" d="M196.097 365.317c-18.367 0-33.31-14.77-33.31-32.922v-17.87a2.701 2.701 0 0 1 5.4 0v17.87c0 15.176 12.52 27.522 27.91 27.522s27.91-12.346 27.91-27.522V308.04a2.7 2.7 0 1 1 5.4 0v24.354c0 18.153-14.943 32.922-33.31 32.922"/>
            <path fill="#58DAEE" d="M243.104 290.532c0 9.055-7.342 16.398-16.398 16.398-9.056 0-16.396-7.343-16.396-16.398 0-9.056 7.34-16.398 16.396-16.398 9.056 0 16.398 7.342 16.398 16.398"/>
            <path fill="#32AFC2" d="M235.27 276.568a16.297 16.297 0 0 1 2.434 8.564c0 9.056-7.342 16.396-16.398 16.396a16.29 16.29 0 0 1-8.563-2.432c2.884 4.693 8.05 7.832 13.963 7.832 9.056 0 16.398-7.34 16.398-16.396 0-5.913-3.141-11.079-7.834-13.964" opacity=".15"/>
            <path fill="#33BDD3" d="M226.706 276.834c-7.553 0-13.696 6.145-13.696 13.698 0 7.553 6.143 13.698 13.696 13.698s13.698-6.145 13.698-13.698c0-7.553-6.145-13.698-13.698-13.698m0 32.796c-10.53 0-19.096-8.568-19.096-19.098s8.566-19.098 19.096-19.098c10.532 0 19.098 8.568 19.098 19.098s-8.566 19.098-19.098 19.098"/>
            <path fill="#FEFEFE" d="M233.704 290.532a6.998 6.998 0 0 1-13.995 0 6.998 6.998 0 1 1 13.995 0"/>
            <path fill="#33BDD3" d="M226.706 286.234a4.304 4.304 0 0 0-4.299 4.298 4.303 4.303 0 0 0 4.299 4.297 4.303 4.303 0 0 0 4.298-4.297c0-2.37-1.93-4.298-4.298-4.298m0 13.995c-5.348 0-9.699-4.351-9.699-9.697 0-5.348 4.351-9.698 9.699-9.698s9.698 4.35 9.698 9.698c0 5.346-4.35 9.697-9.698 9.697"/>
        </g>
    </g>
</svg>
