<svg xmlns="http://www.w3.org/2000/svg" width="80" height="24" viewBox="0 0 80 24">
    <defs>
        <linearGradient id="a" x1="91.683%" x2="-38.413%" y1="4.677%" y2="71.806%">
            <stop offset="0%" stop-color="#00A1FF"/>
            <stop offset="26.01%" stop-color="#00BEFF"/>
            <stop offset="51.22%" stop-color="#00D2FF"/>
            <stop offset="76.04%" stop-color="#00DFFF"/>
            <stop offset="100%" stop-color="#00E3FF"/>
        </linearGradient>
        <linearGradient id="b" x1="107.998%" x2="-130.395%" y1="49.535%" y2="49.535%">
            <stop offset="0%" stop-color="#FFE000"/>
            <stop offset="40.87%" stop-color="#FFBD00"/>
            <stop offset="77.54%" stop-color="#FFA500"/>
            <stop offset="100%" stop-color="#FF9C00"/>
        </linearGradient>
        <linearGradient id="c" x1="86.472%" x2="-50.626%" y1="17.638%" y2="195.596%">
            <stop offset="0%" stop-color="#FF3A44"/>
            <stop offset="100%" stop-color="#C31162"/>
        </linearGradient>
        <linearGradient id="d" x1="-19.128%" x2="42.092%" y1="-53.645%" y2="24.959%">
            <stop offset="0%" stop-color="#32A071"/>
            <stop offset="6.85%" stop-color="#2DA771"/>
            <stop offset="47.62%" stop-color="#15CF74"/>
            <stop offset="80.09%" stop-color="#06E775"/>
            <stop offset="100%" stop-color="#00F076"/>
        </linearGradient>
    </defs>
    <g fill="none" fill-rule="evenodd" transform="translate(.092)">
        <rect width="79.908" height="24" fill="#000" rx="2.406"/>
        <path fill="#FFF" d="M63.966 18.5h1.121V11h-1.12v7.5zm10.098-4.799l-1.286 3.252h-.038l-1.333-3.252h-1.208l2 4.545-1.14 2.529h1.17L75.31 13.7h-1.246zm-6.358 3.947c-.367 0-.88-.183-.88-.637 0-.579.638-.8 1.19-.8.492 0 .724.106 1.023.25a1.358 1.358 0 0 1-1.333 1.187zm.135-4.11c-.812 0-1.652.356-2 1.148l.995.414c.213-.414.609-.55 1.024-.55.58 0 1.17.348 1.179.966v.076a2.482 2.482 0 0 0-1.17-.289c-1.072 0-2.163.589-2.163 1.689 0 1.003.879 1.65 1.865 1.65.753 0 1.169-.338 1.43-.734h.038v.58h1.083v-2.876c0-1.332-.996-2.075-2.281-2.075zm-6.929 1.076h-1.594v-2.57h1.594a1.3 1.3 0 0 1 1.315 1.285c0 .581-.476 1.285-1.315 1.285zM60.884 11h-2.687V18.5h1.121v-2.842h1.566c1.242 0 2.464-.898 2.464-2.33 0-1.43-1.222-2.329-2.464-2.329zm-14.649 6.65c-.774 0-1.422-.647-1.422-1.536 0-.9.648-1.557 1.422-1.557.765 0 1.365.658 1.365 1.557 0 .889-.6 1.536-1.365 1.536zm1.288-3.528h-.04c-.251-.3-.735-.57-1.344-.57-1.278 0-2.45 1.121-2.45 2.562 0 1.43 1.172 2.542 2.45 2.542.61 0 1.093-.27 1.345-.58h.039v.367c0 .977-.523 1.499-1.365 1.499-.688 0-1.114-.494-1.287-.91l-.978.407c.28.677 1.026 1.508 2.265 1.508 1.316 0 2.43-.774 2.43-2.658v-4.583h-1.065v.416zm1.839 4.379h1.123v-7.501h-1.123V18.5zm2.778-2.474c-.03-.986.764-1.489 1.336-1.489.445 0 .822.222.948.541l-2.284.948zm3.484-.851c-.213-.57-.861-1.624-2.187-1.624-1.317 0-2.41 1.034-2.41 2.552 0 1.43 1.084 2.552 2.536 2.552a2.542 2.542 0 0 0 2.129-1.131l-.871-.58c-.29.425-.687.705-1.258.705-.572 0-.978-.26-1.24-.773l3.418-1.411-.117-.29zm-27.221-.84v1.082h2.594c-.078.609-.281 1.053-.59 1.362-.379.378-.969.793-2.004.793-1.597 0-2.846-1.285-2.846-2.88 0-1.596 1.249-2.88 2.846-2.88.861 0 1.49.338 1.955.773l.765-.764c-.649-.619-1.51-1.093-2.72-1.093-2.188 0-4.027 1.78-4.027 3.964s1.84 3.963 4.027 3.963c1.18 0 2.071-.387 2.768-1.112.716-.715.939-1.72.939-2.533 0-.251-.02-.483-.058-.676h-3.65zm6.656 3.314c-.774 0-1.443-.638-1.443-1.546 0-.919.669-1.547 1.443-1.547s1.442.628 1.442 1.547c0 .908-.668 1.546-1.442 1.546zm0-4.098c-1.413 0-2.565 1.073-2.565 2.552 0 1.47 1.152 2.552 2.565 2.552s2.565-1.083 2.565-2.552c0-1.479-1.152-2.552-2.565-2.552zm5.595 4.098c-.774 0-1.442-.638-1.442-1.546 0-.919.668-1.547 1.442-1.547.775 0 1.442.628 1.442 1.547 0 .908-.667 1.546-1.442 1.546zm0-4.098c-1.413 0-2.565 1.073-2.565 2.552 0 1.47 1.152 2.552 2.565 2.552s2.565-1.083 2.565-2.552c0-1.479-1.152-2.552-2.565-2.552z"/>
        <g fill="#FFF">
            <path d="M47.566 4.483v2.234l.014.522-1.695-2.756h-.666v3.833h.59V5.942l-.014-.521 1.778 2.895h.585V4.483zM44.08 6.4c0 .412-.131.756-.39 1.021a1.277 1.277 0 0 1-.948.399 1.28 1.28 0 0 1-.95-.399c-.258-.265-.389-.609-.389-1.021 0-.413.131-.756.39-1.022.257-.264.576-.398.949-.398s.692.134.949.398c.258.266.389.61.389 1.022m-1.338-2c-.55 0-1.014.196-1.384.581a1.98 1.98 0 0 0-.555 1.419c0 .557.187 1.034.555 1.418.369.386.834.58 1.384.58.549 0 1.015-.194 1.383-.58.37-.385.556-.862.556-1.418 0-.554-.187-1.03-.558-1.417a1.845 1.845 0 0 0-1.381-.583M36.755 5.063h1.02v3.253h.592V5.063h1.02v-.58h-2.632zM35.693 8.316h.592V4.483h-.592zM31.364 5.063h1.021v3.253h.592V5.063h1.02v-.58h-2.633zM28.741 8.316h2.256v-.58h-1.664V6.685h1.5v-.569h-1.5V5.063h1.664v-.58H28.74zM28.153 6.208H26.27v.57h1.321c-.034.272-.128.49-.282.646-.26.263-.588.395-.978.395-.366 0-.688-.132-.955-.394-.268-.261-.403-.606-.403-1.025 0-.42.135-.764.403-1.026.267-.261.589-.394.955-.394.41 0 .722.136.954.418l.044.052.406-.415-.035-.043a1.577 1.577 0 0 0-.594-.431 1.931 1.931 0 0 0-.775-.161c-.541 0-1.008.193-1.387.575-.38.381-.572.86-.572 1.425 0 .564.192 1.043.572 1.424.379.381.845.575 1.387.575.566 0 1.033-.191 1.386-.567.313-.319.472-.75.472-1.282 0-.094-.009-.192-.027-.29l-.009-.052z"/>
        </g>
        <path fill="url(#a)" d="M.278.239C.103.423 0 .709 0 1.082V14.35c0 .372.103.658.278.843l.044.043 7.444-7.433v-.176L.322.195.278.239z" transform="translate(5.407 5)"/>
        <path fill="url(#b)" d="M7.766 7.628v.176l2.48 2.479.058-.032 2.939-1.669c.84-.475.84-1.255 0-1.732l-2.94-1.668-.056-.032-2.48 2.478z" transform="translate(5.407 5)"/>
        <path fill="url(#c)" d="M.278 15.194c.277.293.734.329 1.249.037l8.777-4.98-2.538-2.534-7.488 7.477z" transform="translate(5.407 5)"/>
        <path fill="url(#d)" d="M.278.239l7.488 7.478 2.538-2.535L1.527.202A1.386 1.386 0 0 0 .853 0a.769.769 0 0 0-.575.239" transform="translate(5.407 5)"/>
    </g>
</svg>
