<svg xmlns="http://www.w3.org/2000/svg" width="80" height="24" viewBox="0 0 80 24">
    <g fill="none" fill-rule="evenodd">
        <rect width="79.908" height="24" fill="#000" rx="2.4"/>
        <g fill="#FFF">
            <path d="M17.701 11.87c-.017-1.933 1.585-2.874 1.659-2.918-.908-1.322-2.315-1.502-2.81-1.517-1.181-.124-2.328.706-2.93.706-.614 0-1.54-.694-2.54-.673-1.285.02-2.488.763-3.148 1.917-1.361 2.354-.346 5.813.958 7.716.653.931 1.415 1.972 2.413 1.935.976-.04 1.341-.621 2.52-.621 1.167 0 1.51.621 2.527.598 1.048-.017 1.707-.936 2.337-1.876.754-1.068 1.057-2.12 1.069-2.174-.025-.009-2.035-.775-2.055-3.093zM15.778 6.184c.526-.656.885-1.548.785-2.454-.76.034-1.71.525-2.258 1.167-.484.565-.916 1.491-.805 2.362.854.064 1.73-.43 2.278-1.075z"/>
        </g>
        <g fill="#FFF">
            <path d="M72.99 15.751c0 .23-.015.423-.047.58h-3.842c.015.57.2 1.004.557 1.304.324.268.743.403 1.257.403.569 0 1.088-.09 1.555-.273l.2.888c-.545.238-1.189.356-1.932.356-.894 0-1.596-.263-2.107-.788-.509-.525-.764-1.23-.764-2.114 0-.868.237-1.591.712-2.168.498-.615 1.17-.923 2.016-.923.83 0 1.46.308 1.887.923.338.49.508 1.094.508 1.812zm-1.221-.332a1.736 1.736 0 0 0-.249-.983c-.222-.356-.562-.533-1.02-.533-.42 0-.76.173-1.02.521-.213.277-.34.608-.38.995h2.669zM67.262 14.27a2.227 2.227 0 0 0-.404-.036c-.45 0-.8.17-1.044.51-.213.3-.32.68-.32 1.137v3.021h-1.28l.011-3.944c0-.664-.016-1.268-.048-1.813h1.116l.047 1.102h.035c.135-.379.349-.683.64-.912a1.55 1.55 0 0 1 .926-.308c.119 0 .226.008.32.023v1.22zM63.098 15.976c0 .885-.253 1.612-.76 2.18-.53.585-1.234.877-2.112.877-.845 0-1.519-.28-2.021-.841-.502-.56-.754-1.268-.754-2.12 0-.893.259-1.623.777-2.192.518-.568 1.216-.853 2.093-.853.846 0 1.527.28 2.04.841.492.545.737 1.247.737 2.108zm-1.329.042c0-.531-.113-.987-.343-1.367-.269-.46-.653-.688-1.15-.688-.515 0-.906.23-1.175.688-.23.38-.343.843-.343 1.39 0 .532.113.987.343 1.366.277.46.664.689 1.163.689.49 0 .873-.234 1.15-.7.236-.388.355-.848.355-1.378zM56.728 14.105h-1.412V16.9c0 .711.249 1.066.748 1.066.229 0 .418-.02.569-.059l.035.971c-.252.095-.585.142-.996.142-.506 0-.901-.154-1.187-.462-.284-.308-.427-.826-.427-1.552v-2.902h-.84v-.96h.84v-1.055l1.258-.379v1.434h1.412v.96zM52.493 16.663c0 .68-.236 1.232-.71 1.659-.52.466-1.246.699-2.178.699-.86 0-1.55-.166-2.072-.498l.297-1.066c.562.34 1.18.51 1.851.51.483 0 .858-.11 1.128-.326.269-.218.403-.51.403-.873 0-.324-.11-.597-.333-.818-.22-.222-.588-.427-1.103-.618-1.4-.521-2.099-1.285-2.099-2.29 0-.656.245-1.194.736-1.613.49-.419 1.142-.628 1.958-.628.727 0 1.332.126 1.814.379l-.32 1.043a3.151 3.151 0 0 0-1.53-.368c-.451 0-.803.111-1.055.332a.947.947 0 0 0-.32.723c0 .316.121.577.366.782.214.19.601.395 1.164.616.687.277 1.193.6 1.518.971.324.37.485.832.485 1.384zM45.08 15.953c0 .979-.266 1.753-.796 2.321a2.323 2.323 0 0 1-1.767.759c-.76 0-1.305-.273-1.636-.818h-.024v3.033h-1.281V15.04c0-.615-.017-1.247-.048-1.895h1.127l.071.912h.024c.427-.687 1.075-1.03 1.946-1.03.679 0 1.247.268 1.702.805.454.537.681 1.244.681 2.12zM43.774 16c0-.56-.127-1.023-.38-1.386a1.31 1.31 0 0 0-1.115-.57c-.317 0-.603.106-.86.315-.258.21-.425.484-.504.823-.04.159-.06.288-.06.39v.96c0 .42.13.773.385 1.061.257.288.591.433 1.003.433.483 0 .858-.186 1.127-.557.269-.371.404-.861.404-1.47zM38.449 15.953c0 .979-.265 1.753-.795 2.321a2.326 2.326 0 0 1-1.768.759c-.76 0-1.305-.273-1.637-.818h-.024v3.033h-1.28V15.04c0-.615-.017-1.247-.048-1.895h1.126l.072.912h.024c.427-.687 1.075-1.03 1.945-1.03.68 0 1.248.268 1.702.805.455.537.683 1.244.683 2.12zM37.144 16c0-.56-.127-1.023-.38-1.386a1.312 1.312 0 0 0-1.115-.57c-.316 0-.603.106-.86.315-.257.21-.425.484-.504.823-.04.159-.06.288-.06.39v.96c0 .42.13.773.386 1.061.257.289.591.433 1.002.433.483 0 .858-.186 1.127-.557.27-.371.404-.861.404-1.47zM31.83 18.902h-1.365l-.747-2.345H27.12l-.712 2.345H25.08l2.574-7.984h1.59l2.586 7.984zm-2.337-3.329l-.676-2.085c-.072-.213-.206-.715-.403-1.504h-.024c-.08.34-.206.841-.38 1.504l-.664 2.085h2.147z"/>
        </g>
        <g fill="#FFF">
            <path d="M72.42 6.512c0 .113-.008.207-.023.285h-1.889c.009.28.099.492.274.64.16.132.366.198.618.198.28 0 .534-.044.764-.134l.098.437a2.374 2.374 0 0 1-.95.175c-.439 0-.784-.13-1.034-.387-.251-.258-.376-.605-.376-1.039 0-.427.116-.782.35-1.065.244-.302.574-.454.99-.454.407 0 .717.152.926.454.169.24.252.537.252.89zm-.6-.163a.846.846 0 0 0-.123-.483c-.109-.174-.275-.262-.5-.262a.598.598 0 0 0-.502.256.951.951 0 0 0-.187.49h1.311zM68.982 8.06h-.63V6.452c0-.507-.19-.761-.57-.761-.293 0-.492.147-.601.441a.79.79 0 0 0-.03.226V8.06h-.629V3.934h.63v1.704h.011a.952.952 0 0 1 .85-.465c.262 0 .477.085.649.256.213.213.32.53.32.949V8.06zM65.649 5.702h-.694v1.374c0 .35.123.524.367.524.113 0 .207-.01.28-.03l.017.478c-.124.047-.288.07-.489.07-.249 0-.442-.076-.582-.227-.14-.151-.21-.405-.21-.762V5.702h-.414v-.47h.414v-.519l.617-.186v.704h.693v.471zM61.411 8.06h-.629V6.44c0-.5-.19-.749-.571-.749a.566.566 0 0 0-.454.206.727.727 0 0 0-.175.485v1.677h-.63V6.04c0-.248-.008-.517-.023-.809h.553l.03.442h.017a.918.918 0 0 1 .326-.341c.171-.106.362-.159.572-.159.263 0 .483.085.658.256.218.21.326.522.326.937V8.06zM58.026 6.622c0 .435-.125.792-.373 1.071-.261.288-.606.431-1.038.431-.415 0-.746-.137-.994-.413-.246-.276-.369-.623-.369-1.042 0-.438.127-.797.381-1.076.255-.28.598-.42 1.03-.42.415 0 .75.138 1.002.414.24.267.36.613.36 1.035zm-.653.02c0-.26-.056-.484-.168-.67-.133-.226-.32-.34-.566-.34a.633.633 0 0 0-.577.34 1.295 1.295 0 0 0-.169.682c0 .261.056.485.169.671.136.226.326.339.571.339.24 0 .43-.115.566-.345.115-.19.174-.415.174-.676zM52.64 8.06h-.558l-.03-.454h-.017c-.178.345-.482.518-.91.518-.34 0-.625-.134-.85-.401-.225-.268-.338-.615-.338-1.042 0-.458.122-.829.367-1.112a1.13 1.13 0 0 1 .875-.396c.38 0 .646.128.797.384h.012V3.934h.63v3.364c0 .275.008.529.023.762zm-.652-1.193v-.472a.716.716 0 0 0-.245-.579.62.62 0 0 0-.42-.154.646.646 0 0 0-.555.28c-.134.186-.202.425-.202.716 0 .28.065.506.194.68.136.187.32.28.55.28a.607.607 0 0 0 .498-.233.774.774 0 0 0 .18-.518zM49.063 8.06h-.565l-.047-.326h-.017c-.194.26-.47.39-.828.39-.267 0-.483-.086-.646-.256a.803.803 0 0 1-.222-.576c0-.346.144-.61.435-.792.29-.182.696-.271 1.221-.267V6.18c0-.373-.196-.559-.588-.559-.28 0-.526.07-.739.21l-.128-.413c.264-.163.589-.244.972-.244.74 0 1.111.39 1.111 1.17v1.041c0 .283.014.508.041.675zm-.653-.972v-.436c-.695-.012-1.042.178-1.042.57 0 .147.04.258.12.331a.44.44 0 0 0 .308.11.636.636 0 0 0 .385-.13.536.536 0 0 0 .229-.445zM46.016 6.622c0 .435-.124.792-.373 1.071-.26.288-.607.431-1.038.431-.416 0-.747-.137-.993-.413-.247-.276-.37-.623-.37-1.042 0-.438.127-.797.382-1.076.254-.28.597-.42 1.028-.42.416 0 .75.138 1.003.414.24.267.361.613.361 1.035zm-.654.02c0-.26-.056-.484-.168-.67-.132-.226-.32-.34-.565-.34a.63.63 0 0 0-.577.34 1.295 1.295 0 0 0-.169.682c0 .261.057.485.17.671.135.226.325.339.57.339.24 0 .429-.115.565-.345.117-.19.174-.415.174-.676zM42.31 8.06h-.63V3.934h.63zM40.573 8.06h-.63V6.44c0-.5-.19-.749-.57-.749a.568.568 0 0 0-.455.206.73.73 0 0 0-.175.485v1.677h-.63V6.04c0-.248-.008-.517-.023-.809h.554l.03.442h.017a.909.909 0 0 1 .326-.341c.17-.106.362-.159.57-.159.265 0 .485.085.66.256.217.21.326.522.326.937V8.06zM37.309 5.231l-.886 2.829h-.577l-.367-1.228a9.182 9.182 0 0 1-.228-.914h-.011c-.055.31-.13.615-.228.914l-.39 1.228h-.583l-.834-2.829h.648l.32 1.345c.077.318.14.621.192.908h.011c.047-.237.125-.538.234-.902l.402-1.35h.513l.385 1.321c.093.322.169.633.227.931h.018c.042-.29.107-.6.192-.93l.344-1.322h.618zM32.59 6.622c0 .435-.125.792-.374 1.071-.26.288-.606.431-1.038.431-.415 0-.746-.137-.993-.413-.247-.276-.37-.623-.37-1.042 0-.438.127-.797.382-1.076.254-.28.597-.42 1.028-.42.416 0 .75.138 1.003.414.24.267.361.613.361 1.035zm-.654.02c0-.26-.056-.484-.169-.67-.132-.226-.32-.34-.565-.34a.632.632 0 0 0-.577.34 1.295 1.295 0 0 0-.169.682c0 .261.057.485.17.671.135.226.325.339.57.339.24 0 .43-.115.565-.345a1.27 1.27 0 0 0 .175-.676zM29.07 6.005c0 .707-.213 1.238-.637 1.595-.392.33-.95.495-1.672.495-.358 0-.664-.016-.92-.047V4.189a6.805 6.805 0 0 1 1.084-.081c.688 0 1.206.149 1.556.448.392.338.588.82.588 1.45zm-.665.018c0-.458-.121-.809-.364-1.054-.243-.244-.597-.366-1.064-.366-.198 0-.367.013-.507.04v2.934c.078.012.22.017.425.017.482 0 .854-.134 1.116-.401.262-.268.394-.658.394-1.17z"/>
        </g>
    </g>
</svg>
