<svg xmlns="http://www.w3.org/2000/svg" xmlns:xlink="http://www.w3.org/1999/xlink" width="343" height="74" viewBox="0 0 343 74">
    <defs>
        <path id="a" d="M15.905 21.225V.062H.093v21.163h15.812z"/>
    </defs>
    <g fill="none" fill-rule="evenodd">
        <path fill="#D0D2D3" d="M185.06 35.133c4.181 0 7.168-2.132 7.168-5.685v-.08c0-3.395-2.629-5.448-7.129-5.448h-8.603v11.213h8.563zm-11.71-12.516c0-.868.717-1.58 1.553-1.58h10.435c3.425 0 6.173 1.027 7.925 2.765 1.355 1.342 2.151 3.277 2.151 5.448v.08c0 4.54-3.106 7.185-7.447 8.015l6.93 8.844c.318.355.517.71.517 1.145 0 .829-.796 1.54-1.593 1.54-.637 0-1.115-.356-1.474-.83l-7.845-10.107h-8.006v9.357a1.59 1.59 0 0 1-1.593 1.58c-.836 0-1.553-.711-1.553-1.58V22.617zM213.734 37.345c-.318-3.712-2.47-6.95-6.571-6.95-3.585 0-6.293 2.962-6.691 6.95h13.262zm-6.093 11.805c-5.656 0-10.276-4.304-10.276-10.621v-.079c0-5.883 4.182-10.621 9.877-10.621 6.094 0 9.559 4.935 9.559 10.345 0 .829-.677 1.421-1.434 1.421h-14.895c.438 4.422 3.584 6.91 7.248 6.91 2.55 0 4.421-.987 5.935-2.37.239-.197.517-.355.876-.355.757 0 1.354.593 1.354 1.303 0 .356-.16.711-.478.987-1.952 1.856-4.262 3.08-7.766 3.08zM219.23 29.606c0-.83.677-1.54 1.514-1.54.876 0 1.553.671 1.553 1.54v2.092c1.354-2.013 3.186-3.87 6.65-3.87 3.346 0 5.497 1.778 6.612 4.068 1.474-2.25 3.664-4.067 7.249-4.067 4.74 0 7.646 3.159 7.646 8.213v11.292c0 .868-.677 1.54-1.513 1.54-.876 0-1.553-.672-1.553-1.54V36.752c0-3.948-1.992-6.16-5.337-6.16-3.107 0-5.655 2.29-5.655 6.318v10.424c0 .868-.678 1.54-1.554 1.54-.836 0-1.513-.672-1.513-1.54v-10.66c0-3.83-2.031-6.081-5.297-6.081-3.266 0-5.735 2.685-5.735 6.436v10.305c0 .868-.637 1.54-1.514 1.54-.876 0-1.553-.672-1.553-1.54V29.606zM261.844 24.789c0-.198.08-.435.2-.593l2.39-3.593c.397-.592.836-.908 1.433-.908.956 0 2.15.632 2.15 1.185 0 .316-.238.592-.557.908l-2.987 2.803c-.637.632-1.115.75-1.872.75-.438 0-.757-.236-.757-.552zm7.368 12.555c-.318-3.711-2.469-6.949-6.571-6.949-3.585 0-6.293 2.962-6.691 6.95h13.262zM263.12 49.15c-5.656 0-10.275-4.304-10.275-10.621v-.079c0-5.883 4.181-10.621 9.877-10.621 6.093 0 9.558 4.935 9.558 10.345 0 .829-.677 1.421-1.434 1.421H255.95c.438 4.422 3.584 6.91 7.249 6.91 2.548 0 4.42-.987 5.934-2.37.239-.197.517-.355.876-.355.757 0 1.354.593 1.354 1.303 0 .356-.16.711-.478.987-1.951 1.856-4.261 3.08-7.766 3.08zM276.66 38.41v.08c0 4.817 3.385 7.896 7.248 7.896 3.824 0 7.448-3.198 7.448-7.896v-.08c0-4.698-3.624-7.857-7.448-7.857-3.982 0-7.248 2.922-7.248 7.858zm17.643 8.924c0 .869-.677 1.54-1.513 1.54-.876 0-1.554-.671-1.554-1.54V44.57c-1.672 2.448-4.102 4.54-7.885 4.54-4.939 0-9.838-3.869-9.838-10.581v-.079c0-6.673 4.9-10.621 9.838-10.621 3.823 0 6.292 2.053 7.885 4.343V21.196c0-.869.638-1.54 1.514-1.54s1.553.671 1.553 1.54v26.138zM298.445 29.606c0-.83.677-1.54 1.513-1.54.876 0 1.553.671 1.553 1.54v17.728c0 .868-.637 1.54-1.513 1.54-.876 0-1.553-.672-1.553-1.54V29.606zm-.28-7.74c0-.986.797-1.618 1.793-1.618 1.035 0 1.832.632 1.832 1.619v.513c0 .948-.797 1.62-1.832 1.62-.996 0-1.792-.672-1.792-1.62v-.513zM322.699 38.569v-.08c0-4.382-3.306-7.975-7.647-7.975-4.46 0-7.527 3.593-7.527 7.896v.08c0 4.382 3.265 7.936 7.607 7.936 4.46 0 7.567-3.554 7.567-7.857m-18.32 0v-.08c0-5.764 4.54-10.66 10.753-10.66 6.173 0 10.713 4.817 10.713 10.581v.08c0 5.764-4.58 10.66-10.793 10.66-6.173 0-10.674-4.817-10.674-10.581"/>
        <g transform="translate(326.628 27.846)">
            <mask id="b" fill="#fff">
                <use xlink:href="#a"/>
            </mask>
            <path fill="#D0D2D3" d="M.65 18.659a1.369 1.369 0 0 1-.557-1.105c0-.711.597-1.303 1.354-1.303.279 0 .558.079.757.236 2.11 1.422 4.301 2.172 6.532 2.172 2.469 0 4.261-1.263 4.261-3.238v-.079c0-2.053-2.43-2.842-5.138-3.593-3.226-.908-6.81-2.013-6.81-5.764v-.08c0-3.513 2.947-5.843 7.01-5.843 2.19 0 4.58.671 6.571 1.738.398.236.757.67.757 1.263 0 .71-.598 1.303-1.354 1.303a1.55 1.55 0 0 1-.677-.158c-1.753-.987-3.625-1.58-5.377-1.58-2.43 0-3.983 1.264-3.983 2.962v.079c0 1.935 2.55 2.685 5.297 3.514 3.186.948 6.612 2.172 6.612 5.844v.079c0 3.869-3.227 6.12-7.329 6.12-2.708 0-5.695-.988-7.925-2.567" mask="url(#b)"/>
        </g>
        <path fill="#D0D2D3" d="M91.026 23.841c0-1.698 1.354-3.04 3.066-3.04 1.713 0 3.067 1.342 3.067 3.04v8.134h11.31V23.84c0-1.698 1.355-3.04 3.067-3.04 1.713 0 3.067 1.342 3.067 3.04v22.032c0 1.698-1.354 3.04-3.067 3.04-1.712 0-3.066-1.342-3.066-3.04v-8.292H97.159v8.292c0 1.698-1.354 3.04-3.067 3.04-1.712 0-3.066-1.342-3.066-3.04V23.841zM131.689 36.436c-.359-2.685-1.952-4.5-4.501-4.5-2.509 0-4.142 1.776-4.62 4.5h9.12zm-3.903 12.714c-6.413 0-11.152-4.462-11.152-10.937v-.079c0-6.04 4.341-11.016 10.554-11.016 7.13 0 10.275 5.804 10.275 10.187 0 1.737-1.234 2.882-2.827 2.882h-11.988c.597 2.725 2.509 4.146 5.217 4.146 1.673 0 3.067-.513 4.301-1.421.439-.316.837-.474 1.474-.474 1.354 0 2.35 1.026 2.35 2.369 0 .79-.359 1.382-.797 1.777-1.872 1.579-4.301 2.566-7.407 2.566zM139.375 22.617c0-1.658 1.354-3 3.027-3 1.672 0 3.026 1.342 3.026 3v23.295c0 1.659-1.354 3.001-3.026 3.001-1.673 0-3.027-1.342-3.027-3V22.616zM164.505 38.134v-.079c0-3.514-2.39-5.843-5.217-5.843-2.828 0-5.178 2.33-5.178 5.843v.08c0 3.513 2.35 5.843 5.178 5.843 2.827 0 5.217-2.29 5.217-5.844zm-16.369-7.857c0-1.658 1.354-3 3.027-3s3.027 1.342 3.027 3v.276c1.473-1.974 3.505-3.435 6.65-3.435 4.98 0 9.719 3.87 9.719 10.937v.08c0 7.067-4.66 10.936-9.718 10.936-3.226 0-5.217-1.46-6.651-3.159v6.318c0 1.658-1.354 3-3.027 3s-3.027-1.342-3.027-3V30.277z"/>
        <g>
            <ellipse cx="37.041" cy="37" fill="#FFF" rx="37.041" ry="37"/>
            <path fill="#D0D2D3" d="M30.8 28.966h5.154c.981 0 1.784-.802 1.784-1.782s-.803-1.783-1.784-1.783H30.8c-.981 0-1.784.802-1.784 1.783 0 .98.803 1.782 1.784 1.782M27.165 27.184a1.783 1.783 0 1 1-3.566-.002 1.783 1.783 0 0 1 3.566.002M23.575 39.646h5.154c.981 0 1.784-.802 1.784-1.783 0-.98-.803-1.782-1.784-1.782h-5.154c-.981 0-1.784.802-1.784 1.782s.803 1.783 1.784 1.783M19.94 37.863a1.783 1.783 0 1 1-3.566-.001 1.783 1.783 0 0 1 3.567.001M20.816 50.325h5.154c.981 0 1.784-.802 1.784-1.783 0-.98-.803-1.782-1.784-1.782h-5.154c-.981 0-1.784.802-1.784 1.782s.803 1.783 1.784 1.783M17.182 48.542a1.783 1.783 0 1 1-3.567-.001 1.783 1.783 0 0 1 3.567.001"/>
            <path fill="#33BDD3" d="M49.653 39.291l-8.459-4.88a1.33 1.33 0 0 1-.488-1.818l4.508-7.798c1.717-2.972 5.52-4.063 8.507-2.369a6.22 6.22 0 0 1 2.32 8.525l-4.11 7.113-.004-.002-.424.734a1.355 1.355 0 0 1-1.85.495m5.867-19.983c-4.706-2.693-10.716-.995-13.427 3.698l-2.715 4.7-2.453 4.243-5.303 9.177c-2.803 4.85-1.064 11.112 3.906 13.702 4.634 2.414 10.391.77 13.03-3.794L59.14 32.717c2.716-4.699 1.095-10.71-3.621-13.41"/>
        </g>
    </g>
</svg>
