<?xml version="1.0" encoding="iso-8859-1"?>
<!-- Generator: Adobe Illustrator 19.0.0, SVG Export Plug-In . SVG Version: 6.00 Build 0)  -->
<svg version="1.1" id="Capa_1" xmlns="http://www.w3.org/2000/svg" xmlns:xlink="http://www.w3.org/1999/xlink" x="0px" y="0px"
	 viewBox="0 0 512.001 512.001" style="enable-background:new 0 0 512.001 512.001;" xml:space="preserve">
<path style="fill:#FFFFFF;" d="M403.415,10h-240.83c-11.596,0-22.466,5.646-29.134,15.134l-62.975,89.603
	C66.261,120.734,64,127.884,64,135.213V412.39C64,432.057,79.943,448,99.61,448h366.78c19.667,0,35.61-15.943,35.61-35.61V135.213
	c0-7.329-2.261-14.48-6.476-20.476l-62.975-89.603C425.882,15.646,415.011,10,403.415,10z"/>
<path style="fill:#FED79A;" d="M403.415,10h-240.83c-11.596,0-22.466,5.646-29.134,15.134l-62.975,89.603
	C66.261,120.734,64,127.884,64,135.213V412.39C64,432.057,79.943,448,99.61,448h366.78c19.667,0,35.61-15.943,35.61-35.61V135.213
	c0-7.329-2.261-14.48-6.476-20.476l-62.975-89.603C425.882,15.646,415.011,10,403.415,10z"/>
<polygon style="fill:#FFFFFF;" points="348.878,229 283.445,190.72 217.122,229 217.122,123.951 348.878,123.951 "/>
<path style="fill:#FEE4BB;" d="M403.415,10h-240.83c-11.596,0-22.466,5.646-29.134,15.134l-62.975,89.604
	c-1.999,2.844-3.543,5.954-4.63,9.214h434.309c-1.087-3.26-2.631-6.369-4.63-9.214L432.55,25.134
	C425.882,15.646,415.011,10,403.415,10z"/>
<polygon style="fill:#FFF4E2;" points="318.906,10 247.093,10 217.122,123.951 348.878,123.951 "/>
<path style="fill:#FF5D5D;" d="M217.122,333.673c0-57.195-46.366-103.561-103.561-103.561S10,276.477,10,333.673
	c0,24.794,8.717,47.549,23.248,65.378h-0.007L113.561,502l79.937-102.41h-0.06C208.233,381.682,217.122,358.715,217.122,333.673z"/>
<circle style="fill:#FFFFFF;" cx="113.56" cy="333.67" r="44"/>
<path d="M503.706,108.987l-62.975-89.604C432.201,7.246,418.25,0,403.415,0h-240.83C147.75,0,133.8,7.246,125.269,19.384
	l-62.975,89.604C56.868,116.707,54,125.776,54,135.213V194.5c0,5.522,4.477,10,10,10s10-4.478,10-10v-59.287
	c0-0.423,0.028-0.842,0.048-1.262h133.074V229c0,3.572,1.906,6.874,5,8.66c3.095,1.788,6.906,1.787,10,0.001l61.29-35.376
	l60.417,35.347c1.56,0.912,3.304,1.368,5.05,1.368c1.717,0,3.434-0.441,4.975-1.325c3.108-1.783,5.025-5.092,5.025-8.675v-95.049
	h133.074c0.02,0.42,0.048,0.839,0.048,1.262v277.178C492,426.512,480.511,438,466.391,438H210.333c-5.523,0-10,4.478-10,10
	s4.477,10,10,10h256.057c25.149,0,45.61-20.46,45.61-45.609V135.213C512,125.776,509.132,116.707,503.706,108.987z M424.368,30.884
	l58.382,83.067H356.589L331.878,20h71.538C411.745,20,419.578,24.068,424.368,30.884z M311.197,20l24.711,93.951H230.092L254.803,20
	H311.197z M141.632,30.884C146.422,24.068,154.255,20,162.585,20h71.538l-24.711,93.951H83.251L141.632,30.884z M338.878,211.564
	l-50.383-29.477c-3.102-1.814-6.938-1.824-10.049-0.029l-51.324,29.623v-77.73h111.756V211.564z"/>
<path d="M201.813,405.146c16.33-20.146,25.31-45.483,25.31-71.473c0-62.618-50.943-113.562-113.561-113.562S0,271.055,0,333.673
	c0,25.944,8.975,51.296,25.278,71.426c0.026,0.034,0.052,0.068,0.079,0.103l80.32,102.95c1.895,2.429,4.803,3.849,7.883,3.849l0,0
	c3.08,0,5.988-1.419,7.883-3.847l79.937-102.41C201.533,405.548,201.677,405.349,201.813,405.146z M184.996,394.23l-71.433,91.515
	l-72.232-92.584c-0.106-0.146-0.216-0.288-0.331-0.429c-13.542-16.615-21-37.59-21-59.06c0-51.59,41.971-93.562,93.561-93.562
	s93.561,41.972,93.561,93.562c0,21.701-7.598,42.849-21.394,59.548C185.461,393.544,185.216,393.882,184.996,394.23z"/>
<path d="M113.561,279.673c-29.776,0-54,24.225-54,54s24.224,54,54,54s54-24.225,54-54S143.337,279.673,113.561,279.673z
	 M113.561,367.673c-18.748,0-34-15.252-34-34s15.252-34,34-34s34,15.252,34,34S132.309,367.673,113.561,367.673z"/>
<path d="M412.43,384.93c-1.86,1.86-2.93,4.44-2.93,7.07s1.07,5.21,2.93,7.069c1.86,1.86,4.44,2.931,7.07,2.931s5.21-1.07,7.07-2.931
	c1.86-1.859,2.93-4.439,2.93-7.069s-1.07-5.21-2.93-7.07s-4.44-2.93-7.07-2.93S414.29,383.069,412.43,384.93z"/>
<path d="M300.5,402h81.127c5.523,0,10-4.478,10-10s-4.477-10-10-10H300.5c-5.523,0-10,4.478-10,10S294.977,402,300.5,402z"/>
<path d="M457.915,344c0-5.522-4.477-10-10-10H300.548c-5.523,0-10,4.478-10,10s4.477,10,10,10h147.366
	C453.438,354,457.915,349.522,457.915,344z"/>
<g>
</g>
<g>
</g>
<g>
</g>
<g>
</g>
<g>
</g>
<g>
</g>
<g>
</g>
<g>
</g>
<g>
</g>
<g>
</g>
<g>
</g>
<g>
</g>
<g>
</g>
<g>
</g>
<g>
</g>
</svg>
