<?xml version="1.0" encoding="iso-8859-1"?>
<!-- Generator: Adobe Illustrator 19.0.0, SVG Export Plug-In . SVG Version: 6.00 Build 0)  -->
<svg version="1.1" id="Capa_1" xmlns="http://www.w3.org/2000/svg" xmlns:xlink="http://www.w3.org/1999/xlink" x="0px" y="0px"
	 viewBox="0 0 496 496" style="enable-background:new 0 0 496 496;" xml:space="preserve">
<g>
	<g>
		<g>
			<path d="M368,424c13.232,0,24-10.768,24-24v-16v-16v-16c0-13.232-10.768-24-24-24s-24,10.768-24,24v16v16v16
				C344,413.232,354.768,424,368,424z M360,352c0-4.408,3.584-8,8-8c4.416,0,8,3.592,8,8v16h-16V352z M360,384h16v16
				c0,4.408-3.584,8-8,8c-4.416,0-8-3.592-8-8V384z"/>
			<path d="M296,376c0,39.696,32.296,72,72,72c39.704,0,72-32.304,72-72s-32.296-72-72-72C328.296,304,296,336.304,296,376z
				 M368,320c30.872,0,56,25.12,56,56s-25.128,56-56,56s-56-25.12-56-56S337.128,320,368,320z"/>
			<path d="M470.848,258.856L456,252.92V240h-16v23.752l24.912,9.968C474.08,277.384,480,286.128,480,296v8h-56v16h56v112h-56v16h56
				v16c0,8.824-7.176,16-16,16H272c-8.824,0-16-7.176-16-16v-16h56v-16h-56V320h56v-16h-56v-8c0-9.872,5.92-18.616,15.088-22.28
				L296,263.752V240h-16v12.92l-14.848,5.944C249.864,264.976,240,279.552,240,296v168c0,17.648,14.352,32,32,32h192
				c17.648,0,32-14.352,32-32V296C496,279.552,486.136,264.976,470.848,258.856z"/>
			<path d="M256,168v32c0,13.232,10.768,24,24,24h176c13.232,0,24-10.768,24-24v-32c0-13.232-10.768-24-24-24H280
				C266.768,144,256,154.768,256,168z M464,168v32c0,4.408-3.584,8-8,8H280c-4.416,0-8-3.592-8-8v-32c0-4.408,3.584-8,8-8h176
				C460.416,160,464,163.592,464,168z"/>
			<rect x="336" y="112" width="16" height="16"/>
			<path d="M16,16h240v80h80h8h8V84.688L267.312,0H0v496h224v-16H16V16z M272,27.312L324.688,80H272V27.312z"/>
			<path d="M88,160h48v-24h24V88h-24V64H88v24H64v48h24V160z M80,120v-16h24V80h16v24h24v16h-24v24h-16v-24H80z"/>
			<path d="M192,32H32v160h160V32z M176,176H48V48h128V176z"/>
			<rect x="32" y="224" width="16" height="16"/>
			<rect x="64" y="224" width="160" height="16"/>
			<rect x="32" y="256" width="192" height="16"/>
			<rect x="32" y="336" width="192" height="16"/>
			<rect x="32" y="368" width="192" height="16"/>
			<rect x="208" y="400" width="16" height="16"/>
			<rect x="32" y="400" width="160" height="16"/>
		</g>
	</g>
</g>
<g>
</g>
<g>
</g>
<g>
</g>
<g>
</g>
<g>
</g>
<g>
</g>
<g>
</g>
<g>
</g>
<g>
</g>
<g>
</g>
<g>
</g>
<g>
</g>
<g>
</g>
<g>
</g>
<g>
</g>
</svg>
