<?xml version="1.0" encoding="iso-8859-1"?>
<!-- Generator: Adobe Illustrator 19.0.0, SVG Export Plug-In . SVG Version: 6.00 Build 0)  -->
<svg version="1.1" id="Capa_1" xmlns="http://www.w3.org/2000/svg" xmlns:xlink="http://www.w3.org/1999/xlink" x="0px" y="0px"
	 viewBox="0 0 512 512" style="enable-background:new 0 0 512 512;" xml:space="preserve">
<circle style="fill:#E7F8FF;" cx="256" cy="255.929" r="174"/>
<circle style="fill:#FFFFFF;" cx="256" cy="255.929" r="126.03"/>
<rect x="7.012" y="403.859" transform="matrix(0.7071 -0.7071 0.7071 0.7071 -280.5301 183.7175)" style="fill:#98E3FF;" width="148.979" height="53.259"/>
<rect x="94.603" y="367.579" transform="matrix(0.7071 -0.7071 0.7071 0.7071 -244.2516 198.7429)" style="fill:#FFFFFF;" width="46.35" height="53.259"/>
<path style="fill:#FED79A;" d="M323.437,294.005h-23.551c-11.046,0-20-8.954-20-20V83.101h44L323.437,294.005z"/>
<path style="fill:#FEE4BB;" d="M482,294.005H339.886c-11.046,0-20-8.954-20-20V83.101H502v190.904
	C502,285.051,493.046,294.005,482,294.005z"/>
<path d="M502,73.101H279.886c-5.523,0-10,4.477-10,10v37.522c-4.606-0.467-9.251-0.724-13.886-0.724
	c-75.009,0-136.033,61.024-136.033,136.033S180.991,391.964,256,391.964c56.81,0,107.359-35.154,127.281-87.959H482
	c16.542,0,30-13.458,30-30V83.101C512,77.578,507.523,73.101,502,73.101z M289.886,93.101h20v180.904c0,3.506,0.61,6.87,1.72,10
	h-11.72c-5.514,0-10-4.486-10-10V93.101z M256,371.964c-63.98,0-116.033-52.052-116.033-116.033S192.019,139.899,256,139.899
	c4.641,0,9.295,0.285,13.886,0.831v133.275c0,16.542,13.458,30,30,30h40h21.738C342.957,345.083,301.878,371.964,256,371.964z
	 M492,274.005c0,5.514-4.486,10-10,10H366.988h-27.102c-5.514,0-10-4.486-10-10V93.101H492V274.005z"/>
<path d="M410.943,209.696c27.032,0,49.024-21.992,49.024-49.024v-18.333c0-5.523-4.477-10-10-10s-10,4.477-10,10v18.333
	c0,16.004-13.021,29.024-29.024,29.024s-29.024-13.021-29.024-29.024v-18.333c0-5.523-4.477-10-10-10s-10,4.477-10,10v18.333
	C361.918,187.704,383.911,209.696,410.943,209.696z"/>
<path d="M410.932,47.276c5.523,0,10-4.477,10-10V10.008c0-5.523-4.477-10-10-10s-10,4.477-10,10v27.268
	C400.932,42.799,405.41,47.276,410.932,47.276z"/>
<path d="M446.833,59.253c2.559,0,5.119-0.977,7.071-2.929l16.646-16.647c3.905-3.905,3.905-10.237,0-14.142s-10.237-3.905-14.142,0
	l-16.646,16.647c-3.905,3.905-3.905,10.237,0,14.142C441.715,58.277,444.274,59.253,446.833,59.253z"/>
<path d="M367.981,56.291c1.953,1.953,4.512,2.929,7.071,2.929s5.119-0.976,7.071-2.929c3.905-3.905,3.905-10.237,0-14.143
	l-16.646-16.646c-3.905-3.905-10.237-3.905-14.143,0c-3.905,3.905-3.905,10.237,0,14.143L367.981,56.291z"/>
<path d="M412.369,332.996c-4.804-2.726-10.906-1.042-13.633,3.761c-29.117,51.305-83.81,83.175-142.736,83.175
	c-90.43,0-164-73.57-164-164c0-76.105,53.814-143.408,127.957-160.029c5.558-1.246,11.248-2.21,16.914-2.868
	c5.486-0.636,9.417-5.6,8.78-11.086c-0.636-5.486-5.594-9.413-11.086-8.781c-6.358,0.738-12.745,1.821-18.982,3.219
	c-40.13,8.997-76.569,31.646-102.607,63.776C86.552,172.769,72,213.883,72,255.932c0,37.527,11.302,72.46,30.668,101.591
	L2.929,457.262c-3.905,3.905-3.905,10.237,0,14.143c1.953,1.953,4.512,2.929,7.071,2.929s5.119-0.976,7.071-2.929l65.495-65.495
	l23.514,23.514l-65.495,65.495c-3.905,3.905-3.905,10.237,0,14.143c1.953,1.953,4.512,2.929,7.071,2.929s5.119-0.976,7.071-2.929
	l99.751-99.751c29.118,19.337,64.024,30.621,101.521,30.621c66.109,0,127.468-35.752,160.13-93.303
	C418.856,341.825,417.172,335.721,412.369,332.996z M120.223,415.281l-23.514-23.514l18.048-18.048
	c7.119,8.523,14.993,16.394,23.519,23.509L120.223,415.281z"/>
<path d="M256,327.909c-28.454,0-54.295-16.811-65.833-42.828c-2.239-5.049-8.146-7.325-13.196-5.087
	c-5.048,2.239-7.326,8.146-5.087,13.195c14.742,33.241,47.76,54.72,84.117,54.72c5.523,0,10-4.477,10-10
	S261.523,327.909,256,327.909z"/>
<path d="M174.068,266.259c5.523-0.025,9.98-4.522,9.955-10.045v-0.282c0-5.523-4.477-10-10-10s-10,4.477-10,10v0.372
	c0.025,5.507,4.497,9.955,9.999,9.955C174.037,266.259,174.053,266.259,174.068,266.259z"/>
<g>
</g>
<g>
</g>
<g>
</g>
<g>
</g>
<g>
</g>
<g>
</g>
<g>
</g>
<g>
</g>
<g>
</g>
<g>
</g>
<g>
</g>
<g>
</g>
<g>
</g>
<g>
</g>
<g>
</g>
</svg>
